<?xml version="1.0" encoding="utf-8"?>
<!-- Generator: Adobe Illustrator 19.0.0, SVG Export Plug-In . SVG Version: 6.00 Build 0)  -->
<svg version="1.1" id="Layer_1" xmlns="http://www.w3.org/2000/svg" xmlns:xlink="http://www.w3.org/1999/xlink" x="0px" y="0px"
	 viewBox="-429 231 100 100" style="enable-background:new -429 231 100 100;" xml:space="preserve">
<style type="text/css">
	.st0{fill:#FFFFFF;}
	.st1{fill:#3CC11B;}
</style>
<circle id="XMLID_72_" class="st0" cx="-379" cy="281" r="50"/>
<g>
	<path class="st1" d="M-372.8,232.5c4.5,3.6,4.4,8.7,3.7,14c-1.2,10.4-5.3,19.8-10.4,28.9c-5.7,10.1-7.6,20.3-1.1,30.8
		c5.4,8.8,13.4,13.4,23.5,13.1c9.4-0.2,16.3-5.2,20.9-12.4c-0.5,0.8-1,1.6-1.6,2.4c5.5-8.1,8.8-17.8,8.8-28.3c0-27.6-22.4-50-50-50
		c0.9,0,1.9,0,2.8,0.1C-374.7,231.4-373,232.4-372.8,232.5z M-365,263h7v-7h6v7h7v6h-7v7h-6v-7h-7V263z"/>
	<g>
		<path id="XMLID_31_" class="st1" d="M-393.2,328.9c-0.2,0-0.3-0.1-0.5-0.2c-0.1,0-0.2-0.1-0.3-0.1
			C-393.8,328.8-393.5,328.9-393.2,328.9z"/>
		<path id="XMLID_30_" class="st1" d="M-383.1,231.2C-383.1,231.2-383.1,231.2-383.1,231.2C-383.1,231.2-383.1,231.2-383.1,231.2
			C-383.1,231.2-383.1,231.2-383.1,231.2C-383.1,231.2-383.1,231.2-383.1,231.2z"/>
		<path id="XMLID_29_" class="st1" d="M-386.7,243.7c-5.6,0.7-11.3,1.3-17,2c-2.2,0.3-6.2,0.8-8.4,1c0-0.3,1.7-1.2,1.7-1.2
			c0.6-0.3,1.2-0.6,1.9-0.8c3.4-1.1,6.7-2.3,10.1-3.1c2.9-0.8,8.3-2.9,8.3-2.9c2.9-5,4.7-6,7-7.4c-25.7,2.1-45.9,23.6-45.9,49.8
			c0,22.5,14.9,41.5,35.3,47.8c0.2,0.1,0.5,0.1,0.7,0.2c-0.7-1.1-1.3-2-1.8-2.9c-7-12.1-8.6-24.8-2.6-37.6
			c2.9-6.1,7.6-11.4,11.2-17.3c3.1-5,6.2-10,8.5-15.4C-375.2,250.2-380,242.8-386.7,243.7z"/>
	</g>
</g>
</svg>
