<?xml version="1.0" encoding="utf-8"?>
<!-- Generator: Adobe Illustrator 19.0.0, SVG Export Plug-In . SVG Version: 6.00 Build 0)  -->
<svg version="1.1" id="Layer_1" xmlns="http://www.w3.org/2000/svg" xmlns:xlink="http://www.w3.org/1999/xlink" x="0px" y="0px"
	 viewBox="0 0 100 100" style="enable-background:new 0 0 100 100;" xml:space="preserve">
<circle id="XMLID_72_" style="fill:#FFFFFF;" cx="50" cy="50" r="50"/>
<g>
	<path style="fill:#50C13D;" d="M56.175,1.499c4.536,3.641,4.36,8.666,3.735,13.96c-1.232,10.433-5.273,19.849-10.382,28.907
		c-5.671,10.054-7.556,20.336-1.141,30.844c5.356,8.774,13.428,13.36,23.513,13.101c9.364-0.241,16.282-5.152,20.868-12.395
		c-0.497,0.818-1.024,1.617-1.565,2.403C96.747,70.268,100,60.516,100,50c0-27.614-22.386-50-50-50c0.935,0,1.862,0.031,2.785,0.081
		C54.274,0.413,56.001,1.36,56.175,1.499z M64,32h7v-7h6v7h7v6h-7v7h-6v-7h-7V32z"/>
	<g>
		<path id="XMLID_31_" style="fill:#50C13D;" d="M35.817,97.947c-0.168-0.049-0.332-0.107-0.499-0.158
			c-0.116-0.031-0.232-0.06-0.347-0.09C35.25,97.786,35.535,97.863,35.817,97.947z"/>
		<path id="XMLID_30_" style="fill:#50C13D;" d="M45.87,0.184c-0.004,0-0.008,0.001-0.011,0.001
			c-0.002,0.001-0.004,0.003-0.006,0.004c0.006,0,0.012-0.001,0.017-0.001V0.184z"/>
		<path id="XMLID_29_" style="fill:#50C13D;" d="M42.293,12.665c-5.648,0.706-11.306,1.333-16.961,1.992
			c-2.189,0.255-6.222,0.758-8.412,1.013c-0.049-0.318,1.698-1.202,1.698-1.202c0.622-0.287,1.221-0.641,1.868-0.849
			c3.357-1.08,6.691-2.255,10.098-3.148c2.918-0.765,8.279-2.863,8.279-2.863c2.914-4.966,4.688-5.964,6.988-7.421
			C20.181,2.299,0,23.784,0,50c0,22.502,14.872,41.513,35.318,47.788c0.249,0.067,0.497,0.136,0.746,0.195
			c-0.708-1.136-1.294-2.015-1.82-2.929c-6.976-12.129-8.604-24.836-2.556-37.628c2.901-6.135,7.555-11.42,11.155-17.251
			c3.075-4.981,6.207-10.005,8.53-15.351C53.831,19.164,49.049,11.821,42.293,12.665z"/>
	</g>
</g>
</svg>
