<?xml version="1.0" encoding="utf-8"?>
<!-- Generator: Adobe Illustrator 19.0.0, SVG Export Plug-In . SVG Version: 6.00 Build 0)  -->
<svg version="1.1" id="Layer_1" xmlns="http://www.w3.org/2000/svg" xmlns:xlink="http://www.w3.org/1999/xlink" x="0px" y="0px"
	 viewBox="0 0 500 500" style="enable-background:new 0 0 500 500;" xml:space="preserve">
<g id="XMLID_44_" style="opacity:0.1;">
	<path id="XMLID_93_" d="M100.298,313.017c1.844,1.428,2.864,3.337,3.195,5.614c0.335,2.309,0.044,4.473-1.983,5.971
		c-1.434,1.06-1.135,1.028-2.59,0.016c-1.208-0.84-1.881-2.074-2.025-3.522c-0.287-2.891,0.463-5.454,2.589-7.533
		c0.195-0.191,0.483-0.277,0.605-0.545C100.158,313.017,100.228,313.017,100.298,313.017z"/>
	<path id="XMLID_91_" d="M99.261,364.913c-0.088,4.63-0.65,9.004-2.336,13.174c-0.366,0.906-0.787,1.791-1.461,2.522
		c-0.315,0.342-0.661,0.666-1.177,0.494c-0.504-0.168-0.622-0.632-0.694-1.085c-0.213-1.329-0.044-2.65,0.162-3.96
		c0.621-3.957,1.033-7.927,0.862-11.939c-0.208-4.901-1.159-9.614-3.551-13.963c-1.271-2.311-2.961-4.31-4.635-6.323
		c-0.323-0.388-0.667-0.766-0.885-1.228c-0.102-0.217-0.222-0.461-0.019-0.686c0.186-0.206,0.434-0.196,0.682-0.138
		c1.526,0.356,2.846,1.137,4.08,2.059c3.132,2.341,5.3,5.416,6.762,9.012c1.274,3.132,1.914,6.405,2.103,9.772
		C99.201,363.443,99.232,364.263,99.261,364.913z"/>
	<path id="XMLID_90_" d="M101.22,365.101c-0.021-4.617,0.653-9.108,2.62-13.333c1.751-3.76,4.271-6.858,7.894-8.974
		c0.769-0.449,1.577-0.819,2.457-1.007c0.267-0.057,0.541-0.09,0.719,0.157c0.161,0.224,0.064,0.476-0.054,0.693
		c-0.352,0.65-0.849,1.194-1.326,1.748c-2.077,2.419-3.964,4.959-5.234,7.912c-1.322,3.073-2.034,6.291-2.343,9.611
		c-0.438,4.71-0.043,9.376,0.698,14.028c0.219,1.376,0.398,2.768,0.149,4.166c-0.079,0.444-0.215,0.871-0.704,1.012
		c-0.493,0.141-0.835-0.16-1.132-0.493c-0.89-0.997-1.384-2.212-1.826-3.444c-1.218-3.394-1.775-6.914-1.917-10.506
		C101.203,366.149,101.22,365.624,101.22,365.101z"/>
	<path id="XMLID_88_" d="M63.876,372.855c0.095-0.213,0.307-0.275,0.472-0.375c4.557-2.772,9.445-4.77,14.572-6.204
		c4.308-1.205,8.701-1.948,13.146-2.409c0.353-0.037,0.471,0.038,0.51,0.412c0.079,0.75,0.073,1.497,0.064,2.248
		c-0.004,0.375-0.128,0.542-0.548,0.568c-6.436,0.406-12.779,1.41-19.025,3.022c-2.937,0.758-5.823,1.675-8.682,2.684
		C64.237,372.853,64.09,373,63.876,372.855z"/>
	<path id="XMLID_87_" d="M136.542,372.86c-0.196,0.139-0.347-0.001-0.495-0.053c-4.499-1.618-9.086-2.922-13.774-3.864
		c-3.746-0.753-7.518-1.331-11.328-1.645c-0.904-0.074-1.808-0.155-2.713-0.214c-0.273-0.018-0.383-0.108-0.425-0.392
		c-0.132-0.877,0.004-1.742,0.056-2.611c0.019-0.314,0.256-0.23,0.431-0.209c1.42,0.168,2.843,0.315,4.257,0.523
		c4.18,0.614,8.286,1.558,12.292,2.91c3.959,1.337,7.75,3.042,11.315,5.232C136.296,372.621,136.477,372.669,136.542,372.86z"/>
	<path id="XMLID_86_" d="M104.407,345.431c-0.007,2.403-1.865,4.291-4.217,4.284c-2.33-0.007-4.196-1.935-4.188-4.325
		c0.008-2.414,1.888-4.295,4.281-4.285C102.581,341.116,104.414,343.038,104.407,345.431z"/>
	<path id="XMLID_85_" d="M83.308,322.523c-0.019-0.672,0.101-1.318,0.296-1.959c0.103-0.339,0.255-0.473,0.627-0.439
		c1.506,0.138,2.78,0.796,3.884,1.774c1.307,1.159,2.326,2.511,2.465,4.344c0.062,0.819-0.139,1.583-0.451,2.339
		c-0.232,0.564-0.6,0.774-1.191,0.773c-1.677-0.002-3.01-0.667-3.998-2.01C83.885,325.913,83.333,324.305,83.308,322.523z"/>
	<path id="XMLID_84_" d="M117.113,322.575c-0.09,2.136-0.772,4.036-2.333,5.543c-1.042,1.006-2.328,1.348-3.761,1.188
		c-0.257-0.029-0.399-0.136-0.521-0.355c-0.782-1.4-0.946-2.854-0.253-4.314c1.102-2.321,2.888-3.85,5.424-4.441
		c0.051-0.012,0.101-0.027,0.153-0.035c0.806-0.126,0.856-0.091,1.086,0.701C117.07,321.421,117.106,321.994,117.113,322.575z"/>
	<path id="XMLID_83_" d="M107.52,330.717c-0.03,0.956-0.24,2.129-0.8,3.223c-0.682,1.334-1.783,2.103-3.226,2.431
		c-0.377,0.086-0.651,0.006-0.92-0.294c-1.042-1.161-1.548-2.489-1.23-4.04c0.523-2.553,1.854-4.51,4.274-5.646
		c0.429-0.201,0.637-0.082,0.87,0.284C107.13,327.686,107.522,329.05,107.52,330.717z"/>
	<path id="XMLID_82_" d="M99.153,332.902c-0.002,1.334-0.553,2.421-1.487,3.343c-0.155,0.153-0.299,0.19-0.51,0.156
		c-1.223-0.197-2.25-0.736-2.999-1.734c-1.586-2.113-1.667-5.821-0.206-8.018c0.224-0.337,0.407-0.448,0.834-0.272
		C97.168,327.356,99.155,330.292,99.153,332.902z"/>
	<path id="XMLID_81_" d="M77.453,332.807c1.537,0.016,2.967,0.401,4.231,1.296c1.2,0.849,1.72,2.063,1.812,3.496
		c0.015,0.236-0.121,0.345-0.274,0.465c-1.173,0.921-2.49,1.282-3.929,0.842c-2.373-0.726-4.076-2.204-4.931-4.591
		c-0.185-0.516-0.073-0.784,0.44-0.991C75.658,332.98,76.531,332.789,77.453,332.807z"/>
	<path id="XMLID_80_" d="M119.834,339.082c-0.948-0.023-1.847-0.393-2.654-1.027c-0.189-0.148-0.242-0.308-0.232-0.537
		c0.054-1.287,0.496-2.425,1.53-3.197c2.187-1.635,4.592-1.964,7.16-0.978c0.444,0.17,0.588,0.4,0.449,0.9
		C125.391,336.743,122.42,339.095,119.834,339.082z"/>
	<path id="XMLID_79_" d="M86.885,332.7c2.026,0.095,3.746,0.873,5.108,2.379c0.926,1.024,1.181,2.258,0.942,3.608
		c-0.06,0.342-0.224,0.529-0.563,0.652c-1.399,0.506-2.72,0.379-3.925-0.486c-1.806-1.298-2.884-3.031-3.034-5.295
		c-0.033-0.491,0.107-0.764,0.631-0.779C86.322,332.769,86.598,332.727,86.885,332.7z"/>
	<path id="XMLID_78_" d="M113.321,332.711c1.902,0.09,1.87,0.061,1.559,1.701c-0.448,2.363-1.792,4.131-4.102,5.023
		c-0.976,0.377-1.952,0.208-2.904-0.167c-0.227-0.089-0.307-0.234-0.354-0.46c-0.325-1.533,0.029-2.878,1.143-3.983
		C110.003,333.495,111.626,332.782,113.321,332.711z"/>
	<path id="XMLID_77_" d="M94.811,320.01c-0.018,1.371-0.449,2.309-1.254,3.086c-0.14,0.135-0.266,0.169-0.463,0.133
		c-1.159-0.213-2.125-0.751-2.687-1.799c-1.107-2.064-1.136-4.157-0.003-6.24c0.202-0.372,0.431-0.481,0.835-0.279
		C93.451,316.015,94.527,317.869,94.811,320.01z"/>
	<path id="XMLID_76_" d="M110.821,318.306c-0.005,1.098-0.213,2.148-0.78,3.103c-0.618,1.042-1.558,1.604-2.732,1.83
		c-0.237,0.046-0.357-0.054-0.494-0.193c-1.008-1.018-1.404-2.229-1.091-3.634c0.426-1.917,1.456-3.412,3.196-4.369
		c0.739-0.406,0.826-0.363,1.238,0.394C110.644,316.332,110.832,317.296,110.821,318.306z"/>
	<path id="XMLID_75_" d="M78.439,325.667c1.761,0.068,3.249,0.753,4.434,2.049c0.86,0.941,1.113,2.065,0.859,3.312
		c-0.056,0.275-0.207,0.413-0.46,0.505c-1.317,0.479-2.553,0.323-3.664-0.524c-1.387-1.058-2.282-2.43-2.513-4.192
		c-0.129-0.982-0.044-1.093,0.923-1.148C78.16,325.66,78.3,325.667,78.439,325.667z"/>
	<path id="XMLID_74_" d="M121.869,325.658c1.604,0.059,1.696,0.005,1.379,1.511c-0.463,2.199-1.688,3.84-3.926,4.53
		c-0.774,0.239-1.547,0.066-2.299-0.215c-0.278-0.104-0.305-0.319-0.342-0.53c-0.214-1.218,0.014-2.331,0.875-3.253
		C118.751,326.421,120.229,325.732,121.869,325.658z"/>
	<path id="XMLID_73_" d="M121.193,340.897c1.422,0.002,2.708,0.396,3.813,1.322c0.357,0.299,0.451,0.551,0.136,0.987
		c-1.203,1.66-3.833,2.68-5.81,2.181c-0.923-0.233-1.594-0.822-2.122-1.599c-0.135-0.198-0.071-0.358,0.002-0.534
		c0.619-1.494,1.782-2.218,3.353-2.354C120.774,340.881,120.984,340.897,121.193,340.897z"/>
	<path id="XMLID_72_" d="M78.679,340.882c2.383-0.006,3.751,0.627,4.507,2.3c0.128,0.283,0.112,0.506-0.08,0.761
		c-0.774,1.031-1.774,1.608-3.082,1.563c-1.97-0.067-3.612-0.796-4.812-2.415c-0.222-0.299-0.196-0.498,0.076-0.749
		C76.43,341.29,77.799,340.897,78.679,340.882z"/>
	<path id="XMLID_70_" d="M117.421,350.756c-1.148-0.048-2.329-0.227-3.101-1.245c-1.05-1.385-0.979-1.695,0.439-2.578
		c1.028-0.64,2.15-0.462,3.233-0.075c1.132,0.405,2.059,1.081,2.701,2.123c0.203,0.329,0.186,0.543-0.138,0.784
		C119.634,350.448,118.595,350.724,117.421,350.756z"/>
	<path id="XMLID_69_" d="M82.91,350.754c-1.105-0.031-2.168-0.306-3.082-1.03c-0.174-0.138-0.339-0.251-0.202-0.555
		c0.772-1.719,3.525-3.026,5.367-2.518c0.789,0.218,1.628,0.631,1.765,1.39c0.136,0.754-0.482,1.459-1.138,1.945
		C84.831,350.572,83.908,350.733,82.91,350.754z"/>
</g>
<g id="XMLID_54_">
	<path id="XMLID_185_" style="fill:#FFFFFF;" d="M524.008,126.71c0.211-0.983,0.293-1.99,0.606-2.955
		c1.652-5.092,5.199-7.95,10.42-8.775c2.475-0.391,4.938-0.208,7.359,0.478c0.382,0.108,0.527,0.268,0.514,0.677
		c-0.031,0.994-0.029,1.99-0.002,2.985c0.011,0.417-0.07,0.489-0.479,0.348c-2.413-0.834-4.89-1.101-7.352-0.36
		c-3.489,1.05-5.433,3.543-6.012,7.074c-0.449,2.741-0.058,5.372,1.626,7.674c1.647,2.25,3.948,3.309,6.693,3.434
		c1.776,0.081,3.516-0.153,5.186-0.793c0.252-0.096,0.336-0.069,0.333,0.218c-0.011,1.117-0.019,2.235,0.004,3.352
		c0.007,0.353-0.22,0.392-0.446,0.462c-1.976,0.61-4.006,0.761-6.056,0.646c-4.124-0.232-7.559-1.817-10.011-5.24
		c-1.328-1.854-2.034-3.952-2.284-6.211c-0.015-0.135,0.017-0.284-0.1-0.393C524.008,128.457,524.008,127.584,524.008,126.71z"/>
	<path id="XMLID_184_" style="fill:#FFFFFF;" d="M570.019,41.605c1.844,1.428,2.864,3.337,3.195,5.614
		c0.335,2.309,0.044,4.473-1.983,5.971c-1.434,1.06-1.135,1.028-2.59,0.016c-1.208-0.84-1.881-2.074-2.025-3.522
		c-0.287-2.891,0.463-5.454,2.589-7.533c0.195-0.191,0.483-0.277,0.605-0.545C569.879,41.605,569.949,41.605,570.019,41.605z"/>
	<path id="XMLID_183_" style="fill:#FFFFFF;" d="M582.073,124.719c0.985-1.355,2.162-2.354,3.768-2.75
		c3.778-0.932,7.671,0.885,8.306,5.526c0.067,0.487,0.086,0.973,0.086,1.462c0.001,3.825-0.004,7.649,0.009,11.474
		c0.001,0.389-0.068,0.545-0.505,0.532c-1.152-0.034-2.306-0.034-3.457,0c-0.459,0.014-0.539-0.151-0.537-0.566
		c0.015-3.51,0.005-7.02,0.011-10.531c0.002-0.865-0.08-1.71-0.474-2.494c-0.662-1.315-1.736-1.955-3.208-1.93
		c-1.435,0.024-2.443,0.704-3.07,1.981c-0.421,0.858-0.464,1.781-0.465,2.709c-0.003,3.423-0.008,6.846,0.008,10.269
		c0.002,0.419-0.085,0.576-0.54,0.563c-1.152-0.034-2.305-0.03-3.457-0.001c-0.403,0.01-0.491-0.115-0.489-0.5
		c0.015-3.598,0.001-7.195,0.011-10.793c0.006-2.341-0.075-4.679-0.2-7.015c-0.022-0.418,0.093-0.535,0.508-0.523
		c1.012,0.029,2.026,0.027,3.038,0c0.366-0.01,0.482,0.113,0.498,0.462C581.949,123.303,582.019,124.011,582.073,124.719z"/>
	<path id="XMLID_182_" style="fill:#FFFFFF;" d="M568.983,93.501c-0.089,4.63-0.65,9.004-2.336,13.175
		c-0.366,0.906-0.787,1.791-1.461,2.522c-0.315,0.342-0.661,0.666-1.177,0.494c-0.504-0.168-0.622-0.632-0.694-1.085
		c-0.213-1.329-0.044-2.65,0.162-3.96c0.621-3.957,1.033-7.927,0.862-11.939c-0.208-4.901-1.159-9.614-3.551-13.963
		c-1.271-2.311-2.961-4.31-4.635-6.323c-0.323-0.388-0.667-0.766-0.885-1.228c-0.102-0.217-0.222-0.461-0.018-0.686
		c0.186-0.206,0.434-0.196,0.682-0.138c1.526,0.356,2.846,1.137,4.08,2.059c3.132,2.341,5.3,5.416,6.762,9.012
		c1.274,3.132,1.914,6.405,2.103,9.772C568.923,92.031,568.953,92.851,568.983,93.501z"/>
	<path id="XMLID_181_" style="fill:#FFFFFF;" d="M570.942,93.689c-0.021-4.617,0.653-9.108,2.62-13.333
		c1.751-3.76,4.271-6.858,7.894-8.974c0.769-0.449,1.577-0.819,2.457-1.007c0.267-0.057,0.541-0.09,0.719,0.157
		c0.161,0.224,0.064,0.476-0.054,0.693c-0.352,0.65-0.849,1.194-1.326,1.748c-2.077,2.419-3.964,4.959-5.234,7.912
		c-1.322,3.073-2.034,6.291-2.343,9.611c-0.438,4.71-0.043,9.375,0.698,14.028c0.219,1.376,0.398,2.768,0.149,4.166
		c-0.079,0.444-0.215,0.871-0.704,1.012c-0.493,0.141-0.835-0.16-1.133-0.493c-0.89-0.997-1.384-2.212-1.826-3.444
		c-1.218-3.394-1.775-6.914-1.917-10.506C570.924,94.737,570.942,94.213,570.942,93.689z"/>
	<path id="XMLID_180_" style="fill:#FFFFFF;" d="M551.877,131.579c0,2.932-0.009,5.865,0.009,8.797
		c0.003,0.435-0.067,0.608-0.56,0.589c-1.168-0.044-2.339-0.026-3.508-0.007c-0.338,0.006-0.442-0.086-0.441-0.435
		c0.01-5.97,0.011-11.939-0.001-17.909c-0.001-0.369,0.134-0.422,0.452-0.418c1.169,0.016,2.339,0.026,3.508-0.004
		c0.426-0.011,0.555,0.09,0.552,0.536C551.867,125.679,551.877,128.629,551.877,131.579z"/>
	<path id="XMLID_179_" style="fill:#FFFFFF;" d="M533.598,101.443c0.095-0.213,0.307-0.275,0.472-0.375
		c4.557-2.772,9.445-4.77,14.572-6.204c4.308-1.205,8.701-1.948,13.146-2.409c0.353-0.037,0.471,0.038,0.51,0.412
		c0.079,0.75,0.073,1.497,0.064,2.248c-0.004,0.375-0.128,0.542-0.548,0.568c-6.436,0.406-12.779,1.41-19.025,3.022
		c-2.937,0.758-5.823,1.675-8.682,2.684C533.958,101.441,533.812,101.588,533.598,101.443z"/>
	<path id="XMLID_178_" style="fill:#FFFFFF;" d="M606.264,101.448c-0.196,0.139-0.347-0.001-0.495-0.053
		c-4.499-1.618-9.086-2.922-13.774-3.864c-3.746-0.753-7.518-1.331-11.328-1.645c-0.904-0.074-1.808-0.155-2.713-0.214
		c-0.273-0.018-0.383-0.108-0.425-0.392c-0.132-0.877,0.004-1.742,0.056-2.611c0.019-0.314,0.256-0.23,0.431-0.209
		c1.42,0.168,2.843,0.315,4.257,0.523c4.18,0.614,8.286,1.558,12.292,2.91c3.959,1.337,7.75,3.042,11.315,5.232
		C606.017,101.21,606.199,101.257,606.264,101.448z"/>
	<path id="XMLID_177_" style="fill:#FFFFFF;" d="M574.128,74.019c-0.007,2.403-1.865,4.291-4.217,4.284
		c-2.33-0.007-4.196-1.935-4.188-4.325c0.008-2.414,1.888-4.295,4.281-4.285C572.302,69.704,574.135,71.626,574.128,74.019z"/>
	<path id="XMLID_176_" style="fill:#FFFFFF;" d="M553.029,51.111c-0.019-0.672,0.101-1.318,0.296-1.959
		c0.103-0.339,0.255-0.473,0.627-0.439c1.506,0.138,2.78,0.796,3.884,1.774c1.307,1.159,2.326,2.511,2.465,4.344
		c0.062,0.819-0.139,1.583-0.451,2.339c-0.232,0.564-0.6,0.774-1.191,0.773c-1.677-0.002-3.01-0.667-3.998-2.01
		C553.607,54.502,553.054,52.893,553.029,51.111z"/>
	<path id="XMLID_175_" style="fill:#FFFFFF;" d="M586.834,51.163c-0.09,2.136-0.772,4.036-2.333,5.543
		c-1.042,1.006-2.328,1.348-3.761,1.188c-0.257-0.029-0.399-0.136-0.521-0.355c-0.782-1.4-0.946-2.854-0.253-4.314
		c1.102-2.321,2.888-3.85,5.424-4.441c0.051-0.012,0.101-0.027,0.153-0.035c0.806-0.126,0.857-0.091,1.086,0.701
		C586.791,50.01,586.828,50.582,586.834,51.163z"/>
	<path id="XMLID_173_" style="fill:#FFFFFF;" d="M577.242,59.306c-0.03,0.956-0.24,2.129-0.8,3.223
		c-0.682,1.334-1.784,2.103-3.226,2.431c-0.377,0.086-0.651,0.006-0.92-0.294c-1.042-1.161-1.548-2.489-1.23-4.04
		c0.523-2.553,1.854-4.511,4.274-5.646c0.429-0.201,0.637-0.082,0.87,0.284C576.852,56.275,577.243,57.638,577.242,59.306z"/>
	<path id="XMLID_172_" style="fill:#FFFFFF;" d="M568.875,61.49c-0.002,1.334-0.553,2.421-1.487,3.343
		c-0.155,0.153-0.299,0.19-0.51,0.156c-1.223-0.197-2.25-0.736-2.999-1.734c-1.586-2.113-1.667-5.821-0.206-8.018
		c0.224-0.337,0.407-0.448,0.834-0.272C566.889,55.944,568.877,58.88,568.875,61.49z"/>
	<path id="XMLID_171_" style="fill:#FFFFFF;" d="M547.175,61.396c1.537,0.016,2.967,0.401,4.231,1.296
		c1.2,0.849,1.72,2.063,1.812,3.496c0.015,0.236-0.121,0.345-0.274,0.465c-1.173,0.921-2.49,1.282-3.929,0.842
		c-2.373-0.726-4.076-2.204-4.931-4.591c-0.185-0.516-0.073-0.784,0.44-0.991C545.38,61.568,546.253,61.377,547.175,61.396z"/>
	<path id="XMLID_170_" style="fill:#FFFFFF;" d="M589.555,67.671c-0.948-0.023-1.847-0.393-2.654-1.027
		c-0.189-0.148-0.242-0.308-0.232-0.537c0.054-1.287,0.496-2.425,1.53-3.197c2.187-1.635,4.592-1.964,7.16-0.978
		c0.444,0.17,0.588,0.4,0.449,0.9C595.112,65.331,592.141,67.683,589.555,67.671z"/>
	<path id="XMLID_169_" style="fill:#FFFFFF;" d="M556.607,61.288c2.026,0.095,3.746,0.873,5.108,2.379
		c0.926,1.024,1.181,2.258,0.942,3.608c-0.06,0.342-0.224,0.529-0.563,0.652c-1.398,0.506-2.72,0.379-3.925-0.486
		c-1.806-1.298-2.884-3.031-3.034-5.295c-0.033-0.491,0.107-0.764,0.631-0.779C556.043,61.358,556.32,61.316,556.607,61.288z"/>
	<path id="XMLID_168_" style="fill:#FFFFFF;" d="M583.042,61.299c1.902,0.09,1.87,0.061,1.559,1.701
		c-0.448,2.363-1.792,4.131-4.102,5.023c-0.976,0.377-1.952,0.208-2.904-0.167c-0.227-0.089-0.307-0.234-0.354-0.46
		c-0.325-1.533,0.029-2.878,1.143-3.983C579.724,62.084,581.348,61.37,583.042,61.299z"/>
	<path id="XMLID_167_" style="fill:#FFFFFF;" d="M564.532,48.598c-0.018,1.371-0.449,2.309-1.254,3.086
		c-0.14,0.135-0.266,0.169-0.463,0.133c-1.159-0.213-2.125-0.751-2.687-1.799c-1.107-2.064-1.136-4.157-0.003-6.24
		c0.202-0.372,0.431-0.481,0.835-0.279C563.172,44.603,564.248,46.457,564.532,48.598z"/>
	<path id="XMLID_166_" style="fill:#FFFFFF;" d="M580.542,46.895c-0.005,1.098-0.213,2.148-0.78,3.103
		c-0.618,1.042-1.558,1.604-2.732,1.83c-0.237,0.046-0.357-0.054-0.494-0.193c-1.008-1.018-1.404-2.229-1.091-3.634
		c0.426-1.917,1.456-3.412,3.196-4.369c0.739-0.406,0.826-0.363,1.238,0.394C580.365,44.92,580.554,45.884,580.542,46.895z"/>
	<path id="XMLID_165_" style="fill:#FFFFFF;" d="M548.161,54.255c1.762,0.068,3.249,0.753,4.434,2.049
		c0.86,0.941,1.113,2.065,0.859,3.312c-0.056,0.275-0.207,0.413-0.46,0.505c-1.317,0.479-2.553,0.323-3.664-0.524
		c-1.387-1.058-2.282-2.43-2.513-4.192c-0.129-0.982-0.044-1.093,0.923-1.148C547.881,54.248,548.021,54.255,548.161,54.255z"/>
	<path id="XMLID_164_" style="fill:#FFFFFF;" d="M591.59,54.246c1.604,0.059,1.696,0.005,1.378,1.511
		c-0.463,2.199-1.688,3.84-3.926,4.53c-0.774,0.239-1.547,0.066-2.299-0.215c-0.278-0.104-0.305-0.319-0.342-0.53
		c-0.214-1.218,0.014-2.331,0.875-3.253C588.472,55.01,589.951,54.32,591.59,54.246z"/>
	<path id="XMLID_163_" style="fill:#FFFFFF;" d="M590.915,69.485c1.422,0.002,2.708,0.396,3.813,1.322
		c0.357,0.299,0.451,0.551,0.135,0.987c-1.203,1.66-3.833,2.68-5.81,2.181c-0.923-0.233-1.594-0.822-2.122-1.599
		c-0.135-0.198-0.071-0.358,0.002-0.534c0.619-1.494,1.782-2.218,3.353-2.354C590.495,69.47,590.706,69.485,590.915,69.485z"/>
	<path id="XMLID_162_" style="fill:#FFFFFF;" d="M548.401,69.47c2.383-0.006,3.751,0.627,4.507,2.3
		c0.128,0.283,0.112,0.506-0.08,0.761c-0.774,1.031-1.774,1.608-3.082,1.563c-1.97-0.067-3.612-0.796-4.812-2.415
		c-0.222-0.299-0.196-0.498,0.076-0.749C546.151,69.879,547.521,69.485,548.401,69.47z"/>
	<path id="XMLID_161_" style="fill:#FFFFFF;" d="M549.612,120.019c-1.551-0.007-2.771-1.225-2.755-2.751
		c0.015-1.483,1.266-2.688,2.784-2.681c1.512,0.007,2.755,1.227,2.76,2.71C552.405,118.812,551.161,120.026,549.612,120.019z"/>
	<path id="XMLID_160_" style="fill:#FFFFFF;" d="M587.142,79.344c-1.148-0.048-2.329-0.227-3.101-1.245
		c-1.05-1.385-0.979-1.695,0.439-2.578c1.028-0.64,2.15-0.462,3.233-0.075c1.132,0.405,2.059,1.081,2.701,2.123
		c0.203,0.329,0.186,0.543-0.138,0.784C589.355,79.037,588.316,79.312,587.142,79.344z"/>
	<path id="XMLID_159_" style="fill:#FFFFFF;" d="M552.632,79.342c-1.105-0.031-2.168-0.306-3.082-1.03
		c-0.174-0.138-0.339-0.251-0.202-0.555c0.772-1.719,3.525-3.026,5.367-2.518c0.789,0.218,1.628,0.631,1.765,1.39
		c0.136,0.754-0.482,1.459-1.138,1.945C554.552,79.16,553.63,79.321,552.632,79.342z"/>
	<path id="XMLID_156_" style="fill:#FFFFFF;" d="M572.591,122.477c-2.633-0.63-5.289-0.97-7.991-0.581
		c-2.503,0.36-4.671,1.379-6.312,3.366c-1.392,1.685-2.081,3.659-2.266,5.806c-0.208,2.406,0.084,4.732,1.289,6.888
		c2.398,4.289,8.677,4.488,11.208,0.923c0.049-0.068,0.094-0.154,0.228-0.088c-0.011,0.825,0.019,1.659-0.094,2.494
		c-0.285,2.109-1.637,3.565-3.732,3.979c-1.269,0.251-2.536,0.151-3.8-0.056c-0.962-0.158-1.887-0.454-2.852-0.787
		c0,1.157,0.015,2.256-0.009,3.354c-0.008,0.356,0.132,0.46,0.451,0.55c2.528,0.714,5.106,0.787,7.681,0.478
		c2.193-0.263,4.009-1.277,5.179-3.238c0.955-1.602,1.345-3.383,1.362-5.209c0.054-5.798,0.029-11.597,0.045-17.395
		C572.981,122.657,572.886,122.547,572.591,122.477z M568.508,129.644c-0.032,1.36,0.091,2.988-0.272,4.59
		c-0.159,0.703-0.407,1.368-0.814,1.968c-1.465,2.161-4.877,2.084-6.003-0.26c-1.352-2.815-1.27-5.693,0.455-8.375
		c0.98-1.523,2.493-2.236,4.291-2.336c0.645-0.036,1.287-0.017,1.931,0.078c0.345,0.051,0.421,0.199,0.417,0.513
		C568.5,127.009,568.508,128.196,568.508,129.644z"/>
	<path id="XMLID_153_" style="fill:#FFFFFF;" d="M615.687,140.252c-0.299-2.039-0.493-4.085-0.488-6.149
		c0.01-3.683-0.003-7.366,0.011-11.049c0.001-0.357-0.085-0.512-0.451-0.596c-2.618-0.605-5.256-0.959-7.937-0.56
		c-3.585,0.533-6.298,2.323-7.723,5.733c-1.224,2.932-1.262,5.96-0.194,8.943c1.011,2.825,3.012,4.531,6.077,4.761
		c2.657,0.2,4.775-0.758,6.176-3.103c0.077-0.128,0.102-0.298,0.33-0.393c0.081,0.93,0.182,1.812,0.224,2.697
		c0.017,0.358,0.145,0.429,0.467,0.423c0.977-0.018,1.955-0.006,2.932-0.006C615.796,140.951,615.79,140.952,615.687,140.252z
		 M610.72,129.584c-0.043,1.382,0.119,3.011-0.244,4.614c-0.136,0.598-0.329,1.176-0.639,1.707
		c-0.761,1.303-1.913,1.877-3.405,1.817c-1.402-0.056-2.436-0.752-2.931-2.014c-1.118-2.849-1.111-5.671,0.693-8.277
		c1.034-1.494,2.57-2.144,4.362-2.21c0.593-0.022,1.183-0.004,1.774,0.092c0.309,0.05,0.4,0.169,0.396,0.472
		C610.711,126.973,610.72,128.16,610.72,129.584z"/>
	<path id="XMLID_150_" style="fill:#FFFFFF;" d="M623.996,138.604c0-0.226-0.003-0.452,0.001-0.678
		c0.004-0.245-0.007-0.47-0.166-0.689c-0.687-0.947-1.999-1.259-3.031-0.702c-1.082,0.584-1.547,1.878-1.079,3.006
		c0.459,1.106,1.694,1.697,2.841,1.364c0.504-0.146,0.894-0.446,1.227-0.843C624.168,139.609,623.924,139.092,623.996,138.604z
		 M621.943,140.661c-1.154,0.011-2.035-0.841-2.051-1.982c-0.017-1.17,0.863-2.092,2.002-2.098c1.121-0.006,2.019,0.889,2.028,2.023
		C623.929,139.76,623.073,140.651,621.943,140.661z"/>
	<path id="XMLID_55_" style="fill:#FFFFFF;" d="M622.458,138.695c0.436-0.14,0.559-0.44,0.483-0.832
		c-0.067-0.348-0.34-0.482-0.647-0.515c-0.363-0.039-0.732-0.027-1.098-0.04c-0.142-0.005-0.238,0.037-0.238,0.199
		c0,0.734,0.001,1.467-0.001,2.201c-0.001,0.16,0.076,0.208,0.227,0.206c0.159-0.002,0.217-0.075,0.214-0.223
		c-0.002-0.14,0.016-0.281-0.001-0.419c-0.044-0.341,0.113-0.41,0.424-0.394c0.508,0.025,0.726,0.275,0.708,0.765
		c-0.006,0.152,0.01,0.272,0.216,0.27c0.22-0.002,0.188-0.142,0.197-0.282C622.966,139.237,622.845,138.918,622.458,138.695z
		 M621.83,138.562c-0.377,0.03-0.517-0.109-0.424-0.434c-0.037-0.323-0.034-0.57,0.373-0.512c0.319,0.045,0.718-0.011,0.737,0.452
		C622.536,138.527,622.176,138.535,621.83,138.562z"/>
</g>
<g id="XMLID_42_" style="opacity:0.1;">
	<path id="XMLID_101_" d="M273.62,57.876c-1.843,0-3.686,0-5.55,0c0.014-0.252,0.026-0.495,0.04-0.738
		c0.016-0.269,0.044-0.538,0.049-0.807c0.017-0.922,0.032-1.845,0.038-2.767c0.011-1.624,0.023-3.248,0.02-4.873
		c-0.001-0.765,0.002-1.533-0.065-2.294c-0.058-0.655-0.238-1.287-0.761-1.76c-0.207-0.187-0.444-0.305-0.703-0.381
		c-0.391-0.115-0.796-0.18-1.202-0.144c-0.5,0.044-0.997,0.125-1.494,0.2c-0.137,0.021-0.272,0.069-0.402,0.119
		c-0.041,0.016-0.086,0.078-0.089,0.122c-0.016,0.25-0.025,0.5-0.026,0.75c-0.01,2.591-0.027,5.182-0.024,7.773
		c0.001,1,0.043,2.001,0.081,3.001c0.022,0.572,0.073,1.143,0.111,1.715c0.002,0.024-0.002,0.049-0.004,0.083
		c-1.855,0-3.708,0-5.548,0c0.029-0.611,0.075-1.221,0.082-1.831c0.036-2.86,0.071-5.721,0.086-8.581
		c0.007-1.207-0.03-2.414-0.057-3.62c-0.017-0.745-0.054-1.49-0.084-2.234c-0.003-0.063-0.009-0.13-0.033-0.187
		c-0.053-0.131,0.014-0.156,0.121-0.16c0.563-0.02,1.127-0.033,1.69-0.063c0.474-0.026,0.947-0.07,1.42-0.11
		c0.453-0.038,0.906-0.082,1.359-0.122c0.599-0.054,1.199-0.108,1.798-0.162c0.029-0.003,0.058-0.009,0.088-0.01
		c0.911-0.035,1.823-0.118,2.733-0.031c0.709,0.068,1.42,0.138,2.118,0.275c0.463,0.091,0.916,0.272,1.351,0.464
		c1.154,0.509,1.889,1.403,2.291,2.588c0.254,0.749,0.362,1.521,0.365,2.306c0.007,1.752-0.008,3.504,0.002,5.256
		c0.007,1.217,0.03,2.433,0.068,3.649c0.026,0.842,0.089,1.683,0.135,2.524C273.626,57.839,273.623,57.853,273.62,57.876z"/>
	<path id="XMLID_100_" d="M255.378,41.286c0,1.188,0,2.359,0,3.552c-0.044,0-0.101,0-0.157,0c-1.016,0-2.032,0.001-3.047,0.002
		c-0.204,0-0.216,0.009-0.215,0.217c0.003,2.13,0.003,4.259,0.013,6.389c0.003,0.64,0.014,1.283,0.212,1.903
		c0.191,0.599,0.546,1.008,1.201,1.144c0.476,0.099,0.944,0.098,1.414,0.039c0.252-0.032,0.493-0.142,0.739-0.219
		c0.055-0.017,0.106-0.043,0.175-0.07c0.075,1.217,0.149,2.421,0.225,3.644c-0.475,0.078-0.932,0.177-1.395,0.225
		c-0.569,0.059-1.142,0.094-1.714,0.105c-0.548,0.01-1.1,0.003-1.646-0.044c-0.547-0.048-1.085-0.16-1.605-0.361
		c-0.401-0.154-0.785-0.335-1.121-0.597c-0.532-0.416-0.971-0.915-1.209-1.56c-0.135-0.364-0.284-0.73-0.358-1.109
		c-0.084-0.429-0.122-0.873-0.127-1.312c-0.015-1.295-0.012-2.591-0.001-3.886c0.013-1.472,0.043-2.943,0.065-4.415
		c0-0.024-0.004-0.048-0.008-0.1c-0.623,0-1.244,0-1.865,0c-0.012-0.05-0.022-0.072-0.022-0.095
		c-0.003-0.844-0.003-1.688-0.009-2.532c-0.001-0.129,0.044-0.165,0.17-0.194c0.362-0.083,0.728-0.167,1.075-0.297
		c1.094-0.41,1.852-1.177,2.299-2.25c0.219-0.526,0.388-1.068,0.473-1.634c0.053-0.355,0.131-0.707,0.198-1.058
		c1.017,0,2.04,0,3.086,0c-0.012,0.251-0.019,0.484-0.036,0.716c-0.023,0.327-0.067,0.653-0.078,0.98
		c-0.028,0.877-0.041,1.755-0.066,2.632c-0.004,0.137,0.048,0.161,0.17,0.161c1.001,0.005,2.002,0.015,3.003,0.024
		C255.259,41.287,255.303,41.286,255.378,41.286z"/>
	<path id="XMLID_96_" d="M233.834,50.819c0.961,0,1.923,0.008,2.884-0.002c0.763-0.007,1.519-0.087,2.268-0.235
		c0.554-0.11,1.098-0.249,1.624-0.461c0.465-0.187,0.911-0.406,1.312-0.707c0.753-0.563,1.257-1.298,1.502-2.21
		c0.21-0.779,0.218-1.568,0.105-2.358c-0.094-0.656-0.336-1.263-0.72-1.804c-0.462-0.65-1.071-1.131-1.787-1.479
		c-0.496-0.241-1.019-0.406-1.551-0.537c-0.695-0.172-1.409-0.237-2.12-0.263c-1.023-0.038-2.045-0.006-3.061,0.164
		c-0.962,0.161-1.883,0.424-2.747,0.887c-0.831,0.446-1.492,1.081-2.028,1.838c-0.271,0.383-0.466,0.822-0.67,1.247
		c-0.255,0.53-0.402,1.099-0.524,1.673c-0.084,0.395-0.141,0.796-0.202,1.196c-0.021,0.136-0.088,0.184-0.217,0.177
		c-0.245-0.013-0.49-0.024-0.735-0.031c-0.593-0.015-1.187-0.027-1.78-0.042c-0.121-0.003-0.242-0.014-0.369-0.021
		c-0.003-0.034-0.008-0.058-0.008-0.082c-0.01-0.535-0.015-1.07-0.032-1.604c-0.009-0.288-0.016-0.58-0.065-0.863
		c-0.111-0.649-0.25-1.295-0.566-1.881c-0.159-0.295-0.335-0.586-0.541-0.85c-0.551-0.706-1.31-1.113-2.139-1.389
		c-0.395-0.131-0.811-0.222-1.225-0.274c-0.649-0.082-1.304-0.136-1.958-0.167c-0.931-0.044-1.863-0.008-2.79,0.099
		c-0.359,0.041-0.719,0.074-1.076,0.127c-0.42,0.061-0.843,0.115-1.254,0.217c-0.455,0.113-0.896,0.282-1.348,0.412
		c-0.111,0.032-0.136,0.081-0.129,0.181c0.021,0.298,0.043,0.596,0.056,0.895c0.033,0.734,0.06,1.469,0.093,2.204
		c0.006,0.14,0.03,0.279,0.046,0.428c0.041-0.018,0.067-0.03,0.094-0.04c0.537-0.219,1.062-0.472,1.613-0.647
		c0.55-0.174,1.122-0.285,1.69-0.394c0.776-0.149,1.557-0.151,2.335-0.001c0.669,0.129,1.23,0.433,1.553,1.057
		c0.128,0.247,0.206,0.524,0.278,0.796c0.14,0.53,0.143,1.075,0.129,1.619c-0.001,0.045-0.073,0.11-0.124,0.125
		c-0.072,0.022-0.155,0.008-0.234,0.008c-1.191,0.008-2.38,0.026-3.562,0.201c-0.976,0.144-1.927,0.37-2.824,0.784
		c-0.59,0.273-1.134,0.621-1.582,1.102c-0.285,0.306-0.513,0.65-0.692,1.028c-0.219,0.465-0.345,0.957-0.368,1.465
		c-0.031,0.665-0.018,1.331,0.114,1.99c0.136,0.679,0.374,1.316,0.793,1.87c0.593,0.784,1.397,1.264,2.326,1.554
		c0.924,0.288,1.872,0.399,2.836,0.387c0.936-0.012,1.873-0.034,2.809-0.059c0.431-0.011,0.861-0.035,1.291-0.063
		c0.62-0.041,1.24-0.106,1.861-0.135c0.789-0.036,1.579-0.045,2.368-0.067c0.096-0.003,0.192-0.012,0.31-0.019
		c-0.04-0.257-0.094-0.492-0.109-0.728c-0.049-0.811-0.114-1.624-0.118-2.436c-0.007-1.275,0.033-2.551,0.048-3.826
		c0.002-0.134,0.049-0.182,0.182-0.178c0.53,0.015,1.06,0.018,1.589,0.034c0.411,0.012,0.822,0.042,1.233,0.054
		c0.134,0.004,0.174,0.061,0.163,0.181c-0.003,0.034-0.001,0.069,0.003,0.103c0.101,0.824,0.234,1.643,0.498,2.433
		c0.195,0.584,0.43,1.153,0.774,1.665c0.502,0.748,1.122,1.374,1.907,1.838c0.585,0.346,1.207,0.597,1.852,0.78
		c0.513,0.146,1.046,0.233,1.576,0.302c0.581,0.076,1.169,0.131,1.754,0.142c0.95,0.018,1.902,0.056,2.849-0.08
		c0.242-0.035,0.489-0.032,0.73-0.07c0.341-0.054,0.683-0.114,1.017-0.2c0.518-0.134,1.03-0.294,1.546-0.438
		c0.152-0.042,0.186-0.131,0.175-0.28c-0.036-0.474-0.063-0.948-0.087-1.422c-0.024-0.475-0.04-0.95-0.062-1.425
		c-0.009-0.189-0.027-0.378-0.042-0.579c-0.047,0.009-0.087,0.01-0.12,0.025c-0.315,0.143-0.632,0.282-0.942,0.436
		c-0.48,0.238-0.995,0.373-1.512,0.483c-0.772,0.165-1.553,0.246-2.347,0.189c-0.768-0.055-1.507-0.199-2.193-0.566
		c-0.557-0.298-1-0.715-1.325-1.256c-0.37-0.616-0.506-1.295-0.526-2.003C233.604,50.82,233.608,50.819,233.834,50.819z
		 M219.514,54.896c-0.575,0.118-1.156,0.129-1.739,0.12c-0.449-0.007-0.886-0.069-1.295-0.265c-0.515-0.247-0.805-0.661-0.896-1.222
		c-0.066-0.405-0.074-0.812,0.008-1.211c0.092-0.448,0.347-0.806,0.719-1.07c0.428-0.303,0.918-0.437,1.43-0.523
		c0.585-0.099,1.171-0.077,1.758-0.086c0.144-0.002,0.188-0.338,0.187-0.202c-0.004,0.652-0.002,1.565-0.002,1.565
		c0.004,0,0.008,0,0.012,0c0,1-0.007,1.647,0.005,2.274C219.706,54.43,219.648,54.868,219.514,54.896z M233.846,45.857
		c0.167-0.534,0.406-1.027,0.841-1.401c0.313-0.269,0.667-0.438,1.071-0.542c0.426-0.11,0.85-0.103,1.266-0.038
		c0.722,0.112,1.384,0.582,1.489,1.449c0.048,0.395,0.024,0.786-0.091,1.161c-0.167,0.547-0.536,0.933-1.046,1.186
		c-0.448,0.222-0.809,0.334-1.304,0.355C235.677,48.043,235,48.03,235,48.03c0,0.016,0,0.032,0,0.048
		c-1-0.016-0.811-0.028-1.157-0.053c-0.041-0.003-0.169-0.07-0.171-0.11C233.64,47.217,233.636,46.528,233.846,45.857z"/>
	<path id="XMLID_45_" d="M290.327,57.653c-0.05-0.476-0.112-0.952-0.142-1.43c-0.036-0.572-0.062-1.146-0.06-1.72
		c0.004-0.956,0.033-1.912,0.054-2.868c0.017-0.775,0.041-1.549,0.059-2.324c0.009-0.378,0.016-0.756,0.018-1.133
		c0.006-0.921,0.039-1.844-0.077-2.762c-0.102-0.812-0.308-1.59-0.727-2.306c-0.319-0.545-0.724-1.006-1.254-1.338
		c-0.609-0.382-1.274-0.645-1.987-0.77c-0.456-0.08-0.914-0.177-1.374-0.207c-0.665-0.043-1.333-0.044-2-0.041
		c-0.538,0.002-1.077,0.024-1.614,0.061c-0.418,0.029-0.836,0.084-1.25,0.148c-0.525,0.081-1.051,0.162-1.567,0.281
		c-0.393,0.09-0.771,0.242-1.159,0.357c-0.089,0.026-0.1,0.066-0.095,0.145c0.03,0.504,0.056,1.008,0.081,1.512
		c0.023,0.455,0.041,0.91,0.064,1.366c0.012,0.224,0.032,0.448,0.051,0.705c0.128-0.066,0.223-0.126,0.326-0.166
		c0.494-0.194,0.986-0.394,1.486-0.57c0.329-0.115,0.667-0.211,1.009-0.28c0.377-0.077,0.76-0.126,1.143-0.166
		c0.282-0.029,0.567-0.031,0.851-0.03c0.185,0.001,0.371,0.027,0.556,0.044c0.397,0.036,0.777,0.133,1.128,0.324
		c0.563,0.307,0.89,0.801,1.04,1.407c0.148,0.597,0.165,1.21,0.154,1.824c-0.002,0.098-0.051,0.109-0.13,0.11
		c-0.692,0.008-1.384,0.007-2.075,0.034c-0.469,0.018-0.938,0.058-1.403,0.125c-0.51,0.073-1.016,0.176-1.52,0.284
		c-0.916,0.198-1.774,0.54-2.545,1.083c-0.852,0.6-1.389,1.413-1.629,2.424c-0.034,0.141-0.054,0.288-0.063,0.433
		c-0.013,0.205-0.016,0.412-0.013,0.618c0.005,0.338,0.004,0.677,0.031,1.014c0.033,0.418,0.13,0.824,0.258,1.226
		c0.148,0.464,0.367,0.886,0.66,1.265c0.423,0.548,0.97,0.951,1.604,1.224c0.317,0.137,0.65,0.236,0.979,0.342
		c0.495,0.159,1.008,0.238,1.522,0.272c0.586,0.039,1.176,0.031,1.765,0.036c0.373,0.004,0.746,0.007,1.118-0.01
		c0.582-0.026,1.163-0.071,1.745-0.106c0.543-0.032,1.086-0.064,1.628-0.092c0.763-0.04,1.526-0.08,2.289-0.112
		c0.284-0.012,0.569,0,0.854-0.004c0.086-0.001,0.171-0.019,0.258-0.029C290.356,57.774,290.334,57.715,290.327,57.653z
		 M284.83,54.892c-0.672,0.14-1.353,0.145-2.034,0.115c-0.341-0.015-0.675-0.086-0.993-0.228c-0.568-0.255-0.885-0.696-0.961-1.302
		c-0.055-0.438-0.077-0.883,0.062-1.311c0.203-0.624,0.661-1,1.255-1.226c0.867-0.33,1.774-0.304,2.68-0.3
		c0.112,0.001,0.111-0.315,0.111-0.235c-0.001,0.657-0.001,1.596-0.001,1.596c0.003,0,0.006,0,0.01,0c0,1-0.002,1.7,0.002,2.363
		C284.962,54.465,284.921,54.873,284.83,54.892z"/>
</g>
<g id="XMLID_2_" style="opacity:0.1;">
	<path id="XMLID_22_" d="M141.368,146.737c-0.37,0.009-0.548-0.059-0.56-0.49c-0.042-1.468-0.257-2.924-0.549-4.358
		c-2.009-9.855-7.052-17.798-15.169-23.737c-5.065-3.706-10.745-5.932-16.968-6.812c-0.897-0.127-1.814-0.339-2.692-0.339
		c-1.754,0-3.508,0-5.262,0c-0.819,0-1.652,0.039-2.469,0.141c-4.057,0.506-7.928,1.668-11.593,3.458
		c-5.271,2.575-9.763,6.138-13.397,10.768c-3.93,5.007-6.801,10.627-7.951,16.89c-0.249,1.356-0.758,2.725-0.758,4.088
		c0,1.842,0,3.684,0,5.525c0,0.827,0.562,1.701,0.683,2.55c0.95,6.681,3.666,12.68,7.768,18.026
		c1.045,1.362,2.254,2.653,3.505,3.858c0.052-0.092,0.122-0.128,0.135-0.169c0.599-1.868,1.203-3.741,1.828-5.601
		c0.13-0.388,0.066-0.627-0.177-0.931c-5.828-7.29-8.215-15.592-7.01-24.835c0.994-7.623,4.348-14.15,10.04-19.326
		c8.308-7.556,18.092-10.331,29.05-7.859c11.502,2.595,19.262,9.733,23.47,20.724c0.933,2.438,1.424,4.993,1.711,7.586
		c0.092,0.83,0.092,0.832-0.712,0.838c-0.518,0.004-1.035,0.001-1.528,0.001c-0.029,0.083-0.048,0.112-0.042,0.121
		c1.784,2.247,3.574,4.49,5.351,6.742c0.212,0.269,0.315,0.172,0.482-0.031c0.808-0.98,1.628-1.95,2.44-2.926
		c1.057-1.27,2.111-2.544,3.244-3.908C143.196,146.73,142.282,146.716,141.368,146.737z"/>
	<path id="XMLID_21_" d="M116.481,164.79c0-3.091,0.009-6.183-0.01-9.274c-0.003-0.466,0.074-0.643,0.599-0.63
		c1.665,0.039,3.333,0.032,4.998-0.001c0.496-0.01,0.615,0.127,0.613,0.619c-0.019,5.503-0.015,11.006-0.009,16.509
		c0.001,1.074,0.062,2.148,0.282,3.201c0.555,2.66,2.121,4.109,4.835,4.392c1.417,0.148,2.857,0.15,4.201-0.435
		c2.016-0.876,2.858-2.582,3.173-4.638c0.13-0.849,0.125-1.702,0.125-2.557c-0.003-5.481,0.005-10.962-0.013-16.444
		c-0.002-0.509,0.125-0.659,0.647-0.647c1.534,0.037,3.069,0.021,4.604,0.004c0.377-0.004,0.538,0.069,0.536,0.5
		c-0.025,5.832-0.015,11.663-0.051,17.495c-0.012,1.912-0.298,3.797-1.027,5.581c-1.193,2.918-3.314,4.875-6.347,5.703
		c-3.563,0.974-7.146,0.911-10.646-0.331c-3.621-1.285-5.547-4.008-6.243-7.692c-0.224-1.186-0.284-2.386-0.276-3.593
		C116.493,169.964,116.481,167.377,116.481,164.79z"/>
	<path id="XMLID_20_" d="M111.487,169.62c0,4.622-0.016,9.244,0.017,13.866c0.005,0.66-0.189,0.784-0.801,0.767
		c-1.62-0.045-3.242-0.028-4.863-0.006c-0.413,0.005-0.558-0.086-0.557-0.535c0.013-9.419,0.014-18.839-0.001-28.258
		c-0.001-0.479,0.153-0.574,0.595-0.567c1.643,0.025,3.287,0.047,4.928-0.009c0.634-0.022,0.694,0.219,0.692,0.745
		C111.48,160.289,111.487,164.955,111.487,169.62z"/>
	<path id="XMLID_17_" d="M103.196,183.762c-3.7-9.459-7.402-18.917-11.092-28.38c-0.14-0.358-0.308-0.499-0.706-0.494
		c-1.665,0.023-3.331,0.022-4.996-0.001c-0.388-0.005-0.568,0.117-0.705,0.481c-1.233,3.282-2.483,6.558-3.731,9.834
		c-2.351,6.171-4.701,12.342-7.066,18.508c-0.174,0.452-0.097,0.545,0.375,0.538c1.753-0.023,3.506-0.017,5.259-0.002
		c0.337,0.003,0.491-0.092,0.603-0.429c0.502-1.508,1.057-2.999,1.559-4.507c0.141-0.422,0.343-0.569,0.796-0.566
		c3.528,0.02,7.056,0.018,10.585,0.003c0.42-0.002,0.595,0.139,0.731,0.538c0.519,1.527,1.093,3.035,1.632,4.555
		c0.089,0.25,0.162,0.407,0.48,0.405c2.123-0.015,4.246-0.008,6.352-0.008C103.352,184.031,103.251,183.902,103.196,183.762z
		 M92.362,173.797c-2.365-0.014-4.731-0.02-7.096,0.002c-0.54,0.005-0.545-0.15-0.391-0.602c1.17-3.444,2.524-6.825,3.487-10.339
		c0.091-0.334,0.191-0.665,0.286-0.998c0.742,2.236,1.501,4.427,2.303,6.604c0.594,1.614,1.145,3.244,1.745,4.855
		C92.847,173.724,92.765,173.8,92.362,173.797z"/>
	<path id="XMLID_3_" d="M132.7,140.248c-0.68-0.408-0.667-0.995-0.542-1.643c0.029-0.15,0.073-0.301,0.073-0.452
		c0-0.324-0.157-0.567-0.494-0.581c-0.303-0.012-0.469,0.198-0.517,0.492c-0.034,0.208,0.031,0.434-0.118,0.639
		c-0.064-0.026-0.129-0.035-0.172-0.072c-2.579-2.187-5.346-4.099-8.356-5.646c-0.298-0.153-0.265-0.326-0.225-0.58
		c0.243-1.52,0.278-3.053,0.162-4.583c-0.063-0.825-0.249-1.641-0.37-2.463c-0.055-0.372-0.251-0.555-0.625-0.485
		c-0.363,0.068-0.425,0.33-0.36,0.649c0.044,0.214,0.091,0.428,0.13,0.643c0.335,1.866,0.39,3.739,0.149,5.622
		c-0.05,0.388-0.109,0.581-0.589,0.353c-3.114-1.473-6.371-2.523-9.771-3.075c-0.72-0.117-0.856-0.432-0.908-1.034
		c-0.142-1.636-0.75-3.093-1.841-4.326c-0.251-0.284-0.591-0.488-0.965-0.789c2.329-0.94,4.515-1.52,6.783-1.776
		c0.371-0.042,0.751-0.113,0.693-0.583c-0.058-0.476-0.451-0.438-0.82-0.402c-2.389,0.232-4.671,0.886-6.891,1.767
		c-0.436,0.173-0.771,0.213-1.214-0.025c-1.242-0.667-2.598-1.004-3.989-1.214c-1.291-0.195-2.592-0.26-3.975-0.273
		c0.244-0.48,0.44-0.89,0.658-1.289c0.171-0.314,0.293-0.632-0.084-0.854c-0.425-0.25-0.644,0.07-0.815,0.393
		c-0.255,0.482-0.499,0.971-0.73,1.465c-0.11,0.235-0.235,0.379-0.523,0.408c-3.069,0.309-5.834,1.44-8.374,3.153
		c-0.275,0.185-0.486,0.193-0.775,0.035c-0.554-0.304-1.129-0.57-1.701-0.837c-0.342-0.16-0.709-0.237-0.881,0.214
		c-0.161,0.421,0.175,0.57,0.484,0.712c0.515,0.236,1.027,0.477,1.62,0.752c-0.303,0.263-0.52,0.444-0.729,0.634
		c-1.93,1.739-3.563,3.696-4.221,6.271c-0.199,0.779-0.564,1.172-1.294,1.48c-2.279,0.963-4.427,2.184-6.458,3.602
		c-0.467,0.326-0.525,0.715-0.161,0.936c0.326,0.198,0.573-0.006,0.832-0.181c1.905-1.287,3.899-2.415,5.995-3.361
		c0.768-0.347,0.767-0.349,0.818,0.488c0.116,1.918,0.737,3.64,2.074,5.045c0.339,0.356,0.303,0.553,0.045,0.918
		c-1.796,2.543-3.28,5.261-4.501,8.127c-0.562,1.318-1.038,2.668-1.567,4.07c-1.257-1.232-2.318-2.531-3.267-3.923
		c-0.727-1.067-1.386-2.175-1.956-3.335c-0.151-0.308-0.376-0.43-0.69-0.306c-0.344,0.136-0.337,0.423-0.233,0.716
		c0.051,0.142,0.135,0.273,0.204,0.409c1.35,2.656,3.074,5.041,5.207,7.121c0.301,0.293,0.394,0.532,0.264,0.96
		c-0.305,1-0.557,2.02-0.765,3.045c-0.079,0.391-0.42,1.003,0.273,1.149c0.713,0.151,0.596-0.544,0.695-0.94
		c0.25-1,0.437-2.016,0.796-3.002c0.626,0.449,1.193,0.857,1.762,1.263c0.321,0.229,0.689,0.443,0.959,0.003
		c0.232-0.378-0.055-0.619-0.374-0.837c-0.577-0.394-1.119-0.84-1.688-1.248c-0.272-0.195-0.328-0.406-0.221-0.725
		c1.392-4.142,3.234-8.059,5.703-11.677c0.389-0.57,0.659-0.808,1.266-0.305c0.293,0.243,0.693,0.362,1.055,0.515
		c1.656,0.701,3.407,0.928,5.184,1.022c0.271,0.014,0.514-0.047,0.493,0.433c-0.134,3.087-0.117,6.175,0.079,9.261
		c0.025,0.391,0.032,0.801,0.57,0.761c0.493-0.037,0.476-0.437,0.452-0.796c-0.202-2.995-0.277-5.991-0.112-8.992
		c0.026-0.481,0.102-0.659,0.639-0.685c3.783-0.182,7.323-1.175,10.468-3.347c0.453-0.313,0.689-0.321,1.079,0.082
		c2.407,2.492,4.676,5.098,6.716,7.903c0.267,0.368,0.245,0.535-0.096,0.824c-4.34,3.68-9.28,6.033-14.941,6.802
		c-0.376,0.051-0.685,0.157-0.644,0.564c0.047,0.467,0.411,0.463,0.799,0.415c4.075-0.507,7.825-1.925,11.33-4.029
		c1.579-0.948,3.039-2.062,4.456-3.268c0.134,0.192,0.248,0.351,0.357,0.513c1.043,1.54,2.033,3.112,2.903,4.756
		c0.166,0.314,0.383,0.592,0.767,0.405c0.433-0.211,0.298-0.566,0.123-0.895c-0.021-0.039-0.038-0.079-0.059-0.117
		c-0.874-1.592-1.792-3.161-2.858-4.629c-0.426-0.586-0.345-0.887,0.144-1.371c3.634-3.593,6.231-7.807,7.483-12.796
		c0.099-0.393,0.192-0.388,0.507-0.22c2.972,1.579,5.695,3.513,8.23,5.72c0.188,0.164,0.243,0.31,0.192,0.563
		c-0.728,3.643-2.116,7.011-4.196,10.091c-0.688,1.018-1.455,1.974-2.303,2.864c-0.233,0.245-0.393,0.513-0.111,0.798
		c0.301,0.304,0.593,0.166,0.845-0.108c0.222-0.241,0.455-0.474,0.668-0.723c2.401-2.813,4.131-6,5.251-9.518
		c0.299-0.94,0.529-1.901,0.794-2.864c0.089,0.048,0.134,0.061,0.164,0.09c0.272,0.256,0.564,0.603,0.937,0.227
		C133.357,140.808,133.039,140.452,132.7,140.248z M106.894,123.703c1.468,1.226,2.096,2.855,2.338,4.687
		c0.043,0.324-0.098,0.356-0.369,0.332c-1.002-0.089-2.004-0.18-3.008-0.231c-1.182-0.06-2.361,0.039-3.54,0.121
		c-0.207,0.014-0.432,0.106-0.551-0.188c-0.282-0.696-0.839-1.152-1.499-1.591c1.811-1.293,3.663-2.352,5.598-3.277
		C106.289,123.351,106.553,123.418,106.894,123.703z M97.354,121.756c0.085-0.218,0.193-0.308,0.424-0.309
		c2.353-0.019,4.681,0.139,6.908,0.989c0.176,0.067,0.392,0.093,0.514,0.312c-2.027,0.989-3.972,2.116-5.782,3.465
		c-0.128,0.096-0.251,0.176-0.419,0.125c-0.969-0.296-1.974-0.336-3.015-0.381C96.346,124.49,96.825,123.116,97.354,121.756z
		 M96.306,121.535c-0.384,1.186-0.829,2.296-1.088,3.448c-0.181,0.804-0.486,1.261-1.337,1.359c-0.445,0.051-0.91,0.207-1.294,0.437
		c-0.569,0.342-0.915,0.17-1.347-0.249c-0.764-0.742-1.632-1.369-2.587-2.001C91.006,122.946,93.484,121.903,96.306,121.535z
		 M83.861,129.341c0.952-1.545,2.204-2.817,3.608-3.953c0.229-0.185,0.374-0.199,0.616-0.035c0.998,0.674,1.949,1.403,2.856,2.269
		c-0.988,0.711-1.808,1.54-2.17,2.723c-0.043,0.141-0.124,0.198-0.279,0.217c-1.948,0.247-3.829,0.773-5.749,1.473
		C82.933,130.999,83.362,130.152,83.861,129.341z M85.049,138.643c-0.349,0.458-0.528,0.339-0.816-0.01
		c-1.234-1.49-1.629-3.249-1.688-5.124c-0.006-0.198,0.043-0.345,0.232-0.415c1.801-0.667,3.633-1.222,5.675-1.522
		c0.15-0.036,0.239,0.089,0.281,0.367c0.086,0.571,0.32,1.101,0.716,1.518c0.279,0.293,0.14,0.42-0.085,0.613
		C87.764,135.441,86.324,136.969,85.049,138.643z M93.32,135.541c-0.435,1.697-0.703,3.423-0.819,5.168
		c-0.041,0.624-0.215,0.949-0.721,0.789c-2.142-0.166-4.07-0.476-5.83-1.464c-0.369-0.207-0.496-0.332-0.163-0.745
		c1.338-1.655,2.786-3.198,4.378-4.609c0.263-0.233,0.46-0.28,0.796-0.105c0.643,0.336,1.365,0.459,2.081,0.544
		C93.361,135.157,93.385,135.29,93.32,135.541z M91.855,133.837c-0.796-0.228-1.486-0.641-1.898-1.406
		c-0.553-1.028-0.412-2.124,0.475-3.004c1.643-1.631,3.642-2.434,5.958-2.432c1.088-0.012,2.139,0.148,3.124,0.62
		c1.539,0.737,1.933,1.961,1.085,3.455c-0.799,1.409-2.092,2.203-3.58,2.699C95.311,134.336,93.578,134.331,91.855,133.837z
		 M103.743,138.387c-2.222,1.469-4.652,2.386-7.27,2.821c-0.754,0.125-1.516,0.201-2.274,0.299
		c-0.706,0.152-0.812-0.187-0.731-0.793c0.23-1.711,0.419-3.426,0.866-5.1c0.078-0.29,0.15-0.445,0.498-0.451
		c1.422-0.024,2.762-0.407,4.005-1.087c0.333-0.182,0.539-0.139,0.811,0.073c1.415,1.106,2.799,2.245,4.128,3.454
		C104.146,137.94,104.201,138.084,103.743,138.387z M104.012,136.46c-1.153-1.042-2.337-2.048-3.59-2.968
		c-0.265-0.195-0.289-0.293-0.041-0.522c0.894-0.827,1.49-1.828,1.618-3.058c0.033-0.313,0.219-0.254,0.405-0.282
		c0.892-0.134,1.789-0.134,2.687-0.12c1.206-0.033,2.402,0.11,3.602,0.197c0.604,0.044,0.577,0.314,0.508,0.753
		c-0.368,2.333-1.505,4.261-3.107,5.943C105.101,137.449,105.096,137.44,104.012,136.46z M121.031,134.013
		c-1.115,4.455-3.386,8.26-6.491,11.597c-0.399,0.429-0.76,0.907-1.285,1.231c-2.176-3.015-4.555-5.843-7.198-8.442
		c-0.297-0.292-0.143-0.403,0.066-0.594c1.825-1.672,3.199-3.633,3.837-6.057c0.089-0.337,0.16-0.681,0.201-1.026
		c0.097-0.813,0.09-0.824,0.891-0.672c3.315,0.629,6.504,1.647,9.567,3.071C121.078,133.333,121.146,133.553,121.031,134.013z"/>
</g>
<g id="XMLID_58_">
	<path id="XMLID_148_" style="fill:#FFFFFF;" d="M533.565,193c-0.031,0-0.063,0-0.094,0c-0.536,1-1.235,0.638-1.814,1.07
		c0.193,0.204,0.462,0.156,0.684,0.219c0.192,0.055,0.287,0.097,0.286,0.327c-0.018,4.411,0.004,8.824-0.053,13.234
		c-0.024,1.863-0.238,3.719-0.961,5.473c-0.473,1.148-1.197,2.09-2.285,2.715c-0.781,0.448-1.3,0.483-2.184,0.208
		c2.727-0.896,3.632-3.114,4.046-5.669c0.259-1.598,0.054-3.213,0.052-4.83c-0.004-3.705-0.243-7.411-0.243-11.116
		c0-0.135,0-0.27,0-0.484c0,0.357-1.054,0.681-1.667,1.003c0.024,0.06,0.149,0.098,0.164,0.102c0.898,0.252,0.959,0.251,0.959,1.171
		c0,3.58,0.049,7.16,0.02,10.739c-0.014,1.706-0.057,3.42-0.606,5.063c-0.397,1.186-1.011,2.22-2.129,2.875
		c-0.632,0.37-1.101,0.4-1.821,0.116c0.536-0.27,1.055-0.501,1.475-0.907c1.224-1.185,1.666-2.695,1.829-4.317
		c0.261-2.597,0.173-5.204,0.182-7.808c0.007-2.167-0.005-4.333,0.008-6.5c0.002-0.38-0.076-0.43-0.403-0.235
		c-0.488,0.291-0.999,0.546-1.552,0.841c-0.002,0.013-0.008,0.023-0.008,0.037c1.013,0.242,1.017,0.257,1.017,1.281
		c0,2.606,0.033,5.213-0.013,7.819c-0.03,1.69,0.018,3.388-0.263,5.066c-0.215,1.283-0.623,2.474-1.608,3.403
		c-0.551,0.52-1.152,0.504-1.865,0.291c1.446-0.512,1.902-1.709,2.243-2.965c0.317-1.17,0.358-2.386,0.37-3.585
		c0.039-3.674,0.014-7.348,0.013-11.022c0-0.055-0.006-0.113-0.014-0.227c-0.012-0.008-0.025-0.013-0.039-0.019
		c-1.609,0.873-3.184,1.726-4.758,2.58c-0.012,0.014-0.271,0.017-0.282,0.02c-0.002,0.019-0.252,0.038-0.252,0.059
		c0,3.659,0,7.319,0,10.98c0,0.045,0,0.091,0,0.136c0,0.007,0.265,0.014,0.269,0.025c0.033,1.016,0.253,2.024,0.618,2.983
		c0.165,0.435,0.487,0.804,0.964,0.949c0.118,0.036,0.215,0.103,0.262,0.21c0.177,0.401,0.457,0.711,0.896,0.841
		c0.147,0.044,0.197,0.195,0.29,0.292c0.587,0.61,1.239,1.148,1.972,1.579c0.111,0.065,0.248,0.495,0.369,0.528
		c0.058,0.006,0.118,0.449,0.179,0.449c0.157,0,0.314,0,0.471,0c0.168,0,0.408-0.48,0.611-0.543
		c1.559-0.483,2.653-1.684,3.368-3.126c0.961-1.939,1.238-4.146,1.268-6.256C533.605,203.084,533.562,199,533.565,193z"/>
	<path id="XMLID_147_" style="fill:#FFFFFF;" d="M522.525,210.169l-0.041,0.003l-0.038-0.016c0-3.738,0-7.475,0-11.213
		c0.029-0.002,0.059,0,0.088,0.006C522.531,202.689,522.528,206.429,522.525,210.169z"/>
	<path id="XMLID_146_" style="fill:#FFFFFF;" d="M593.875,209.646c0,0.801-0.003,1.601,0.001,2.402
		c0.004,0.92,0.289,1.249,1.214,1.313c0.324,0.022,0.377,0.139,0.383,0.426c0.007,0.349-0.211,0.276-0.405,0.276
		c-1.476,0.002-2.951,0.002-4.427,0.006c-0.202,0.001-0.375,0.012-0.359-0.282c0.013-0.234-0.008-0.396,0.328-0.425
		c0.952-0.085,1.183-0.368,1.183-1.328c0.001-3.564,0.001-7.127,0-10.691c0-0.874-0.276-1.195-1.155-1.26
		c-0.296-0.022-0.354-0.113-0.361-0.389c-0.007-0.317,0.158-0.308,0.378-0.307c1.491,0.004,2.983,0.005,4.474-0.002
		c0.221-0.001,0.357,0.025,0.338,0.299c-0.015,0.216,0.005,0.368-0.305,0.397c-1.051,0.098-1.289,0.382-1.29,1.438
		c-0.001,1.334,0.009,2.669-0.007,4.003c-0.004,0.313,0.057,0.437,0.405,0.431c1.271-0.021,2.543-0.025,3.814,0.001
		c0.38,0.008,0.428-0.136,0.424-0.461c-0.016-1.366-0.005-2.731-0.008-4.097c-0.002-0.934-0.266-1.242-1.212-1.312
		c-0.304-0.022-0.35-0.12-0.358-0.386c-0.01-0.307,0.143-0.312,0.374-0.311c1.476,0.007,2.951,0.003,4.427,0.003
		c0.184,0,0.38-0.049,0.372,0.264c-0.008,0.267-0.025,0.41-0.368,0.431c-0.833,0.051-1.051,0.298-1.124,1.13
		c-0.091,1.034-0.031,2.071-0.036,3.106c-0.011,2.355-0.005,4.71-0.002,7.064c0,0.282,0.044,0.565,0.031,0.845
		c-0.031,0.698,0.254,1.07,1.127,1.131c0.341,0.024,0.365,0.16,0.372,0.432c0.009,0.354-0.229,0.269-0.414,0.269
		c-1.46,0.004-2.92,0-4.38,0.004c-0.22,0.001-0.393,0.018-0.38-0.304c0.011-0.264,0.053-0.375,0.356-0.401
		c0.944-0.081,1.211-0.388,1.213-1.317c0.004-1.633-0.008-3.265,0.01-4.898c0.004-0.333-0.091-0.418-0.419-0.413
		c-1.287,0.02-2.575,0.017-3.862,0.002c-0.29-0.003-0.371,0.074-0.363,0.368c0.022,0.847,0.008,1.695,0.008,2.543
		C593.877,209.646,593.876,209.646,593.875,209.646z"/>
	<path id="XMLID_145_" style="fill:#FFFFFF;" d="M632.963,205.46c0.413-0.785,0.907-1.41,1.702-1.695
		c1.822-0.653,3.52,0.485,3.579,2.453c0.057,1.914,0.017,3.83,0.019,5.745c0.001,0.984,0.155,1.197,1.12,1.407
		c0.339,0.074,0.186,0.303,0.215,0.475c0.044,0.26-0.15,0.219-0.303,0.219c-0.832,0.002-1.665-0.012-2.496,0.013
		c-0.317,0.01-0.348-0.117-0.347-0.382c0.009-2.386,0.003-4.773,0.009-7.159c0.001-0.317-0.032-0.628-0.103-0.933
		c-0.217-0.93-1.049-1.32-1.883-0.853c-0.956,0.536-1.362,1.445-1.512,2.474c-0.199,1.357-0.047,2.727-0.087,4.09
		c-0.008,0.267-0.002,0.534-0.002,0.801c0,0.83,0.258,1.16,1.072,1.248c0.301,0.033,0.303,0.167,0.314,0.39
		c0.012,0.257-0.094,0.316-0.331,0.315c-1.319-0.008-2.637-0.003-3.956,0.002c-0.186,0.001-0.31-0.034-0.281-0.258
		c0.024-0.182-0.089-0.392,0.249-0.447c0.957-0.156,1.126-0.375,1.126-1.331c0-3.642,0-7.285-0.002-10.927
		c0-0.751-0.202-0.976-0.958-1.038c-0.297-0.024-0.51-0.065-0.457-0.452c0.025-0.182,0.08-0.244,0.249-0.252
		c0.909-0.04,1.817-0.079,2.726-0.13c0.324-0.018,0.248,0.205,0.249,0.377c0.002,1.758-0.001,3.517,0.004,5.275
		C632.877,205.05,632.83,205.224,632.963,205.46z"/>
	<path id="XMLID_144_" style="fill:#FFFFFF;" d="M547.416,206.217c0-1.507,0.001-3.013,0-4.52c-0.001-1.082-0.317-1.47-1.398-1.612
		c-0.353-0.046-0.224-0.265-0.253-0.438c-0.035-0.212,0.075-0.263,0.272-0.262c1.177,0.007,2.354,0.007,3.531,0.002
		c0.194-0.001,0.305,0.056,0.275,0.266c-0.023,0.163,0.094,0.362-0.216,0.426c-1.196,0.247-1.416,0.514-1.432,1.736
		c-0.016,1.208-0.001,2.417-0.005,3.625c-0.006,1.82,0.017,3.641-0.032,5.461c-0.055,2.052-1.391,3.361-3.445,3.488
		c-0.756,0.047-1.502,0.045-2.235-0.165c-1.733-0.498-2.75-1.736-2.775-3.526c-0.04-2.997-0.019-5.995-0.029-8.992
		c-0.001-0.281-0.037-0.562-0.059-0.843c-0.018-0.23-0.096-0.443-0.3-0.559c-0.361-0.206-0.154-0.533-0.182-0.802
		c-0.017-0.155,0.16-0.109,0.257-0.109c1.193-0.003,2.386,0.002,3.578-0.005c0.229-0.001,0.307,0.083,0.29,0.305
		c-0.015,0.185,0.034,0.348-0.263,0.386c-1.122,0.144-1.251,0.309-1.251,1.439c-0.001,3.092-0.005,6.184,0.003,9.276
		c0.003,1.036,0.278,1.978,1.221,2.549c1.011,0.613,2.081,0.559,3.097,0.018c0.968-0.516,1.323-1.439,1.343-2.479
		C547.438,209.325,547.416,207.771,547.416,206.217z"/>
	<path id="XMLID_143_" style="fill:#FFFFFF;" d="M552.643,205.595c0.369-0.39,0.59-0.806,0.927-1.145
		c0.868-0.874,1.899-1.067,3.026-0.673c1.1,0.385,1.494,1.319,1.523,2.376c0.054,1.961,0.024,3.924,0.029,5.886
		c0.003,1.01,0.112,1.162,1.099,1.333c0.312,0.054,0.203,0.253,0.227,0.417c0.027,0.191-0.031,0.284-0.251,0.281
		c-0.863-0.01-1.727-0.017-2.59,0.003c-0.323,0.007-0.299-0.168-0.299-0.385c0.004-2.323,0.002-4.646,0.002-6.969
		c0-0.377,0-0.756-0.089-1.124c-0.229-0.944-1.023-1.301-1.883-0.838c-0.769,0.415-1.144,1.13-1.397,1.926
		c-0.187,0.589-0.225,1.199-0.227,1.812c-0.004,1.177,0,2.355-0.001,3.532c-0.001,0.934,0.211,1.211,1.132,1.338
		c0.332,0.046,0.247,0.245,0.267,0.433c0.028,0.253-0.116,0.27-0.316,0.27c-1.318-0.006-2.637-0.009-3.956,0.002
		c-0.228,0.002-0.315-0.057-0.287-0.288c0.023-0.187-0.069-0.379,0.27-0.42c0.859-0.103,1.072-0.375,1.072-1.229
		c0.001-2.166,0.001-4.332-0.001-6.499c-0.001-0.838-0.145-1.002-0.987-1.113c-0.239-0.031-0.449-0.011-0.432-0.378
		c0.017-0.36,0.241-0.3,0.448-0.31c0.784-0.036,1.568-0.056,2.351-0.105c0.269-0.017,0.36,0.058,0.35,0.331
		C552.629,204.571,552.643,205.083,552.643,205.595z"/>
	<path id="XMLID_142_" style="fill:#FFFFFF;" d="M626.919,208.736c-0.001,1.146-0.002,2.292,0.001,3.437
		c0.001,0.203-0.005,0.413,0.041,0.609c0.092,0.388,0.294,0.705,0.733,0.756c0.422,0.049,0.772-0.091,1-0.471
		c0.242-0.402,0.31-0.851,0.34-1.306c0.026-0.391,0.037-0.785,0.022-1.176c-0.011-0.283,0.071-0.379,0.368-0.377
		c0.297,0.002,0.326,0.135,0.324,0.373c-0.008,0.752,0.028,1.507-0.204,2.238c-0.354,1.115-1.165,1.585-2.555,1.478
		c-0.943-0.072-1.667-0.78-1.834-1.791c-0.056-0.341-0.085-0.682-0.084-1.029c0.006-2.119-0.007-4.238,0.012-6.357
		c0.003-0.381-0.077-0.556-0.483-0.493c-0.169,0.026-0.345,0.011-0.517,0.003c-0.142-0.007-0.345,0.062-0.334-0.198
		c0.008-0.19-0.072-0.399,0.209-0.505c1.623-0.614,2.157-1.928,2.248-3.526c0.012-0.205-0.094-0.498,0.307-0.505
		c0.287-0.005,0.42,0.043,0.413,0.379c-0.022,1.051,0.009,2.104-0.018,3.155c-0.009,0.366,0.11,0.45,0.452,0.434
		c0.595-0.027,1.193,0.013,1.789-0.015c0.338-0.016,0.334,0.156,0.338,0.4c0.004,0.253-0.012,0.407-0.341,0.391
		c-0.611-0.028-1.224,0.006-1.836-0.013c-0.299-0.009-0.405,0.065-0.4,0.39C626.933,206.256,626.92,207.496,626.919,208.736z"/>
	<path id="XMLID_141_" style="fill:#FFFFFF;" d="M646.418,205.706c-0.186-0.961-1.627-1.567-2.796-0.911
		c-0.547,0.307-0.911,0.789-1.114,1.355c-0.747,2.082-0.739,4.193-0.019,6.268c0.452,1.303,1.611,1.764,2.794,1.251
		c0.549-0.238,0.898-0.671,1.138-1.198c0.208-0.458,0.374-0.934,0.423-1.438c0.028-0.28,0.18-0.276,0.391-0.243
		c0.203,0.032,0.363,0.061,0.315,0.337c-0.158,0.906-0.406,1.773-1.01,2.498c-1.032,1.239-3.133,1.401-4.523,0.307
		c-1.696-1.335-2.24-3.171-2.056-5.233c0.171-1.915,0.998-3.504,2.763-4.428c1.195-0.625,2.43-0.593,3.564,0.198
		c0.906,0.632,1.301,2.124,0.88,3.144c-0.175,0.424-0.497,0.641-0.957,0.618c-0.439-0.022-0.723-0.266-0.87-0.675
		c-0.155-0.431-0.133-0.867-0.005-1.295C645.476,205.795,645.717,205.681,646.418,205.706z"/>
	<path id="XMLID_140_" style="fill:#FFFFFF;" d="M619.307,214.012c-0.003-0.204-0.006-0.408-0.009-0.612
		c0.343-0.036,0.693-0.053,0.976-0.285c0.245-0.202,0.345-0.469,0.345-0.788c-0.003-3.719,0.001-7.439-0.004-11.158
		c-0.001-0.659-0.3-0.998-0.984-1.091c-0.297-0.04-0.438-0.109-0.419-0.452c0.02-0.376,0.279-0.279,0.467-0.289
		c0.782-0.044,1.567-0.053,2.348-0.107c0.354-0.024,0.441,0.079,0.44,0.436c-0.014,4.159-0.01,8.318-0.01,12.477
		c0,0.851,0.214,1.121,1.075,1.221c0.314,0.037,0.282,0.2,0.294,0.408c0.013,0.228-0.072,0.301-0.295,0.3
		c-1.365-0.009-2.731-0.007-4.096-0.012C619.392,214.059,619.35,214.029,619.307,214.012z"/>
	<path id="XMLID_139_" style="fill:#FFFFFF;" d="M567.852,208.713c0,1.13,0,2.261,0,3.391c0,0.126-0.004,0.252,0.004,0.377
		c0.044,0.64,0.317,1.002,0.797,1.062c0.534,0.067,0.944-0.233,1.137-0.838c0.223-0.697,0.25-1.417,0.227-2.14
		c-0.008-0.248,0.039-0.364,0.326-0.356c0.255,0.007,0.355,0.059,0.351,0.338c-0.011,0.753,0.016,1.507-0.21,2.239
		c-0.346,1.124-1.151,1.618-2.481,1.524c-1.008-0.071-1.742-0.765-1.907-1.823c-0.043-0.278-0.053-0.563-0.054-0.844
		c-0.004-2.182-0.011-4.364,0.005-6.546c0.003-0.361-0.078-0.529-0.465-0.47c-0.169,0.026-0.345,0.012-0.517,0
		c-0.14-0.01-0.35,0.076-0.364-0.171c-0.011-0.189-0.091-0.414,0.185-0.518c1.672-0.628,2.173-2.001,2.271-3.614
		c0.019-0.303,0.074-0.446,0.421-0.432c0.386,0.015,0.27,0.271,0.271,0.463c0.007,1.02,0.017,2.041-0.005,3.061
		c-0.007,0.335,0.055,0.471,0.427,0.449c0.61-0.035,1.225,0.008,1.836-0.017c0.364-0.014,0.295,0.21,0.311,0.425
		c0.018,0.242-0.021,0.374-0.317,0.364c-0.612-0.021-1.225,0.012-1.836-0.012c-0.325-0.013-0.427,0.078-0.421,0.414
		C567.864,206.264,567.852,207.489,567.852,208.713z"/>
	<path id="XMLID_138_" style="fill:#FFFFFF;" d="M660.276,206.208c0.319-0.475,0.491-0.993,0.819-1.434
		c0.54-0.725,1.247-1.04,1.938-0.842c1.074,0.308,1.579,2.005,0.846,2.846c-0.478,0.549-1.233,0.426-1.514-0.246
		c-0.332-0.794-0.085-1.399,0.729-1.79c-0.42-0.317-0.836-0.287-1.241,0.111c-0.658,0.646-0.892,1.498-1.093,2.354
		c-0.193,0.826-0.288,1.666-0.282,2.517c0.007,0.926,0,1.852,0.002,2.778c0.002,0.718,0.253,1.015,0.97,1.149
		c0.169,0.031,0.342,0.068,0.512,0.065c0.293-0.004,0.3,0.161,0.31,0.391c0.013,0.303-0.168,0.275-0.361,0.275
		c-1.381-0.001-2.763-0.001-4.144,0.001c-0.194,0-0.38,0.026-0.374-0.272c0.005-0.228,0.025-0.367,0.304-0.419
		c0.654-0.122,0.94-0.379,0.942-0.924c0.009-2.228,0.058-4.456-0.023-6.684c-0.025-0.685-0.299-1.184-1.049-1.27
		c-0.368-0.042-0.217-0.312-0.235-0.501c-0.027-0.276,0.193-0.183,0.326-0.19c0.752-0.038,1.506-0.051,2.256-0.109
		c0.312-0.024,0.372,0.084,0.364,0.362C660.264,204.986,660.276,205.597,660.276,206.208z"/>
	<path id="XMLID_137_" style="fill:#FFFFFF;" d="M563.154,208.12c0,1.317-0.001,2.635,0.001,3.952
		c0.002,0.892,0.229,1.176,1.126,1.295c0.334,0.044,0.249,0.243,0.268,0.431c0.027,0.258-0.133,0.268-0.323,0.267
		c-1.317-0.003-2.635-0.005-3.952,0.004c-0.216,0.001-0.325-0.047-0.305-0.285c0.017-0.199-0.041-0.381,0.285-0.419
		c0.864-0.102,1.097-0.392,1.098-1.264c0.003-2.149,0.002-4.297,0.002-6.446c0-0.988-0.131-1.147-1.104-1.244
		c-0.243-0.024-0.285-0.125-0.273-0.325c0.011-0.183-0.042-0.377,0.262-0.386c0.877-0.025,1.753-0.066,2.629-0.117
		c0.335-0.019,0.287,0.193,0.287,0.396C563.153,205.36,563.153,206.74,563.154,208.12z"/>
	<path id="XMLID_136_" style="fill:#FFFFFF;" d="M563.152,200.425c0.003,0.978-0.459,1.499-1.184,1.444
		c-0.266-0.02-0.476-0.138-0.645-0.335c-0.422-0.494-0.436-1.468-0.02-1.97c0.241-0.291,0.544-0.481,0.942-0.39
		c0.473,0.108,0.747,0.433,0.869,0.887C563.154,200.209,563.147,200.37,563.152,200.425z"/>
	<path id="XMLID_133_" style="fill:#FFFFFF;" d="M666.665,209.213c1.473-0.007,2.816-0.005,4.29-0.005
		c0.392,0,1.045,0.003,1.045,0.005c0-0.157,0-0.314,0-0.471c0-0.076,0.043-0.219,0.034-0.333c-0.069-0.869-0.211-1.7-0.605-2.479
		c-1.081-2.14-3.605-2.737-5.401-1.264c-1.037,0.851-1.522,2.004-1.721,3.289c-0.331,2.144,0.072,4.101,1.696,5.659
		c1.876,1.8,4.688,1.241,5.7-1.095c0.184-0.424,0.296-0.884,0.296-1.327c0-0.094,0-0.188,0-0.283c0-0.027-0.116-0.044-0.233-0.082
		c-0.289-0.093-0.265,0.077-0.31,0.303c-0.149,0.744-0.359,1.446-0.898,2.015c-0.972,1.026-2.614,0.924-3.406-0.239
		c-0.718-1.053-0.834-2.269-0.874-3.499C666.269,209.109,666.522,209.214,666.665,209.213z M666.273,208.485
		c0.062-0.906,0.081-1.964,0.506-2.801c0.305-0.603,0.77-1.059,1.464-1.095c0.562-0.029,1.02,0.156,1.303,0.648
		c0.537,0.934,0.564,1.956,0.578,2.994c0.003,0.246-0.183,0.489-0.334,0.49c-0.534,0.003-1.067,0.279-1.601,0.279
		c-0.534,0-1.067,0-1.601,0C666.426,209,666.256,208.726,666.273,208.485z"/>
	<path id="XMLID_130_" style="fill:#FFFFFF;" d="M589.755,213.619c-0.005-0.177,0.019-0.312-0.245-0.35
		c-0.67-0.097-0.842-0.283-0.969-0.947c-0.038-0.198-0.044-0.405-0.044-0.608c-0.003-2.527-0.002-5.055-0.002-7.582
		c0-1.507-0.001-3.014,0.002-4.521c0-0.215,0.024-0.398-0.301-0.377c-0.876,0.057-1.754,0.089-2.632,0.124
		c-0.197,0.008-0.253,0.085-0.277,0.283c-0.043,0.359,0.142,0.406,0.429,0.428c0.701,0.056,0.935,0.224,0.953,0.851
		c0.037,1.326,0.011,2.655,0.011,3.982c-0.471-0.587-0.956-1.078-1.692-1.246c-1.167-0.267-2.523,0.335-3.326,1.482
		c-1.039,1.484-1.248,3.159-1.054,4.901c0.17,1.531,0.708,2.897,2.047,3.808c1.343,0.913,2.999,0.537,3.828-0.848
		c0.065-0.108,0.07-0.277,0.293-0.31c0,0.384,0.004,0.753-0.002,1.122c-0.003,0.166,0.028,0.269,0.23,0.259
		c0.83-0.043,1.66-0.083,2.491-0.111C589.75,213.95,589.761,213.81,589.755,213.619z M586.44,211.514
		c-0.118,0.541-0.317,1.05-0.664,1.489c-0.798,1.008-2.137,0.843-2.635-0.336c-0.494-1.168-0.498-2.413-0.528-3.697
		c0.037-1.129,0.041-2.309,0.502-3.422c0.344-0.83,0.8-1.162,1.532-1.152c0.58,0.008,0.963,0.328,1.262,0.779
		c0.436,0.659,0.592,1.413,0.683,2.178C586.756,208.746,586.741,210.137,586.44,211.514z"/>
	<path id="XMLID_127_" style="fill:#FFFFFF;" d="M619.49,211.655c-0.022-0.209,0.17-0.509-0.291-0.528
		c-0.459-0.019-0.358,0.288-0.377,0.525c-0.033,0.391-0.051,0.784-0.188,1.156c-0.075,0.204-0.225,0.358-0.453,0.342
		c-0.212-0.015-0.325-0.196-0.364-0.384c-0.043-0.213-0.053-0.436-0.053-0.654c-0.004-1.93-0.001-3.861-0.003-5.791
		c-0.001-0.856-0.227-1.627-0.967-2.137c-1.133-0.78-3.458-0.885-4.727,0.228c-0.686,0.602-1.014,1.612-0.755,2.376
		c0.148,0.438,0.457,0.68,0.905,0.693c0.423,0.012,0.751-0.189,0.943-0.583c0.182-0.372,0.17-0.766,0.085-1.15
		c-0.086-0.388-0.385-0.609-0.797-0.722c0.476-0.54,1.021-0.726,1.637-0.758c1.223-0.064,1.827,0.488,1.852,1.704
		c0.01,0.471-0.023,0.944,0.012,1.412c0.025,0.335-0.12,0.464-0.407,0.568c-0.691,0.251-1.379,0.514-2.051,0.811
		c-0.793,0.35-1.523,0.8-2.11,1.46c-1.044,1.173-0.821,3.021,0.464,3.755c1.296,0.74,2.993,0.36,3.847-0.858
		c0.087-0.125,0.129-0.29,0.315-0.371c0.152,0.75,0.445,1.406,1.295,1.537c0.746,0.115,1.445,0.018,1.854-0.744
		c0.154,0.163,0,0.357,0.152,0.47c0.155-0.206,0.171-0.411-0.009-0.612C619.301,212.812,619.555,212.25,619.49,211.655z
		 M615.94,209.693c0,0.901-0.088,1.786-0.482,2.616c-0.228,0.481-0.542,0.881-1.039,1.106c-0.71,0.321-1.359,0.043-1.625-0.69
		c-0.385-1.059-0.029-2.261,0.895-3.004c0.581-0.468,1.253-0.765,1.944-1.03c0.224-0.086,0.321-0.058,0.31,0.201
		C615.931,209.159,615.94,209.426,615.94,209.693z"/>
	<path id="XMLID_124_" style="fill:#FFFFFF;" d="M656.861,211.444c-0.298,0.003-0.426,0.092-0.421,0.403
		c0.004,0.28-0.026,0.564-0.072,0.841c-0.057,0.346-0.054,0.822-0.552,0.776c-0.486-0.045-0.418-0.515-0.419-0.865
		c-0.007-2.026,0.007-4.051-0.009-6.077c-0.008-0.99-0.348-1.837-1.311-2.263c-1.117-0.494-2.281-0.553-3.437-0.136
		c-0.984,0.355-1.632,1.032-1.81,2.097c-0.098,0.584,0.129,1.196,0.521,1.417c0.508,0.287,1.114,0.095,1.396-0.441
		c0.33-0.626,0.143-1.547-0.415-1.785c-0.349-0.148-0.234-0.245-0.045-0.395c0.521-0.411,1.125-0.547,1.77-0.482
		c1.001,0.101,1.383,0.483,1.473,1.487c0.045,0.499-0.002,1.006,0.047,1.504c0.043,0.436-0.108,0.629-0.53,0.763
		c-1.197,0.38-2.364,0.842-3.389,1.595c-1.095,0.803-1.564,1.898-1.271,3.008c0.249,0.942,0.877,1.502,1.822,1.691
		c1.096,0.219,2.096,0.049,2.874-0.833c0.183-0.208,0.324-0.454,0.546-0.77c0.044,0.199,0.061,0.287,0.083,0.375
		c0.206,0.852,0.749,1.298,1.598,1.313c0.856,0.015,1.347-0.359,1.609-1.223c0.156-0.517,0.186-1.049,0.192-1.583
		C657.109,211.682,657.229,211.44,656.861,211.444z M653.571,209.228c-0.02,0.186-0.004,0.375-0.004,0.563
		c-0.018,1.019-0.059,2.033-0.553,2.965c-0.15,0.282-0.342,0.524-0.582,0.728c-0.396,0.336-0.851,0.47-1.351,0.299
		c-0.506-0.173-0.696-0.612-0.776-1.089c-0.22-1.31,0.315-2.285,1.4-2.985c0.473-0.305,0.997-0.515,1.521-0.722
		C653.49,208.881,653.604,208.918,653.571,209.228z"/>
	<path id="XMLID_121_" style="fill:#FFFFFF;" d="M610.037,210.501c-0.208-0.095-0.279,0.031-0.305,0.217
		c-0.062,0.454-0.205,0.885-0.397,1.299c-0.451,0.97-1.2,1.527-2.283,1.522c-1.012-0.004-1.581-0.663-1.977-1.5
		c-0.417-0.881-0.526-1.829-0.571-2.791c-0.015-0.313,0.113-0.36,0.379-0.356c0.848,0.012,1.696,0.005,2.544,0.004
		c0.879,0,1.759-0.008,2.638,0.004c0.254,0.003,0.38-0.052,0.355-0.338c-0.083-0.957-0.217-1.902-0.649-2.775
		c-0.619-1.251-1.565-2.098-3.005-2.183c-1.409-0.083-2.569,0.493-3.308,1.692c-1.404,2.279-1.442,4.641-0.09,6.948
		c0.868,1.482,2.21,2.219,3.983,2.055c1.578-0.146,3.154-1.943,3.093-3.537C610.431,210.439,610.181,210.567,610.037,210.501z
		 M605.024,205.212c0.342-0.661,0.891-0.995,1.641-0.944c0.703,0.048,1.078,0.511,1.306,1.117c0.297,0.789,0.346,1.615,0.347,2.449
		c0,0.212-0.082,0.264-0.277,0.261c-0.548-0.009-1.096-0.003-1.643-0.003c-0.532,0-1.064-0.003-1.597,0.001
		c-0.17,0.001-0.297-0.001-0.294-0.238C604.518,206.94,604.595,206.04,605.024,205.212z"/>
	<path id="XMLID_118_" style="fill:#FFFFFF;" d="M579.141,210.499c-0.315-0.071-0.332,0.08-0.376,0.302
		c-0.129,0.651-0.339,1.273-0.751,1.807c-1.044,1.351-2.858,1.241-3.719-0.228c-0.582-0.992-0.694-2.044-0.761-3.16
		c-0.019-0.308,0.175-0.22,0.364-0.22c0.863,0,1.103,0,2.103,0c0,0,0-0.105,0-0.103c2,0,1.939-0.014,2.786,0.007
		c0.325,0.008,0.566-0.08,0.543-0.418c-0.069-0.979-0.182-1.931-0.634-2.81c-1.256-2.441-4.111-2.812-5.939-0.773
		c-1.758,1.961-1.738,5.784,0.025,7.906c1.077,1.296,2.696,1.825,4.18,1.37c1.321-0.405,2.317-1.72,2.489-3.258
		C579.48,210.642,579.415,210.561,579.141,210.499z M574.09,205.143c0.369-0.655,0.934-0.953,1.679-0.877
		c0.678,0.069,1.038,0.517,1.255,1.115c0.283,0.776,0.328,1.587,0.36,2.402c0.01,0.245-0.06,0.331-0.312,0.323
		c-0.533-0.017-1.066-0.005-1.6-0.005c-0.549,0-1.098-0.005-1.647,0.003c-0.204,0.003-0.327-0.03-0.31-0.278
		C573.58,206.904,573.62,205.978,574.09,205.143z"/>
</g>
<path id="XMLID_174_" style="fill:#FFFFFF;" d="M523.525,156.169l-0.041,0.003l-0.038-0.016c0-3.738,0-7.475,0-11.213
	c0.029-0.002,0.059,0,0.088,0.006C523.531,148.689,523.528,152.429,523.525,156.169z"/>
<g id="XMLID_23_">
	<path id="XMLID_358_" style="fill:#FFFFFF;" d="M546.079,327.933c1.626-1.608,3.256-3.213,4.877-4.826
		c4.766-4.739,9.528-9.481,14.292-14.222c0.104-0.103,0.212-0.202,0.221-0.187c6.478,6.393,12.956,12.786,19.402,19.147
		c-1.539,1.563-3.008,3.075-4.499,4.566c-2.139,2.14-4.297,4.259-6.433,6.402c-0.261,0.262-0.46,0.294-0.798,0.155
		c-8.85-3.628-17.706-7.243-26.561-10.859c-0.166-0.068-0.337-0.125-0.505-0.187L546.079,327.933z"/>
	<path id="XMLID_357_" style="fill:#FFFFFF;" d="M546.288,366.41c2.079-2.124,4.118-4.223,6.176-6.302
		c1.564-1.58,3.159-3.13,4.729-4.703c0.216-0.216,0.393-0.262,0.683-0.143c8.909,3.655,17.821,7.302,26.733,10.95
		c0.06,0.025,0.116,0.059,0.09,0.046c-6.397,6.473-12.81,12.963-19.256,19.485C559.007,379.247,552.625,372.806,546.288,366.41z"/>
	<path id="XMLID_356_" style="fill:#FFFFFF;" d="M546.076,327.923c0.002,12.527,0.003,25.055,0.005,37.582c0,0.178,0,0.356,0,0.698
		c-6.423-6.394-12.75-12.692-19.101-19.014c0.105-0.118,0.193-0.228,0.292-0.327c6.255-6.28,12.511-12.559,18.766-18.84
		c0.022-0.022,0.03-0.057,0.043-0.088C546.079,327.933,546.076,327.923,546.076,327.923z"/>
	<path id="XMLID_327_" style="fill:#FFFFFF;" d="M584.961,366.082c0-12.605,0-25.221,0-37.988
		c6.432,6.374,12.776,12.66,19.071,18.898C597.671,353.359,591.324,359.712,584.961,366.082z"/>
	<path id="XMLID_325_" style="fill:#FFFFFF;" d="M526.734,393.989c2.829,2.656,5.61,5.267,8.48,7.961c0-2.429,0-4.751,0-7.102
		c1.003,0,1.941,0,2.907,0c0,4.606,0,9.189,0,13.865c-2.894-2.69-5.731-5.328-8.675-8.064c0,2.611,0,5.069,0,7.562
		c-0.929,0-1.803,0-2.712,0C526.734,403.498,526.734,398.786,526.734,393.989z"/>
	<path id="XMLID_28_" style="fill:#FFFFFF;" d="M583.18,400.561c-0.588,1.473-1.12,2.803-1.651,4.133
		c-0.423,1.061-0.854,2.119-1.261,3.186c-0.101,0.265-0.222,0.38-0.521,0.373c-0.898-0.021-1.796-0.008-2.796-0.008
		c2.046-4.699,4.066-9.34,6.139-14.102c2.065,4.74,4.086,9.379,6.13,14.07c-1.09,0-2.109,0-3.163,0
		C585.119,405.717,584.174,403.205,583.18,400.561z"/>
	<path id="XMLID_27_" style="fill:#FFFFFF;" d="M572.979,397.579c-0.757-0.327-1.478-0.696-2.237-0.947
		c-0.568-0.188-1.135,0.014-1.616,0.37c-0.659,0.486-0.801,1.312-0.213,1.87c0.484,0.46,1.11,0.779,1.694,1.126
		c0.545,0.324,1.161,0.543,1.668,0.914c2.223,1.626,2.315,4.608,0.241,6.425c-1.913,1.676-4.173,1.47-6.149,0.359
		c-0.104-0.059-0.211-0.22-0.214-0.335c-0.018-0.846-0.01-1.693-0.01-2.635c0.197,0.155,0.32,0.278,0.466,0.362
		c0.576,0.331,1.129,0.738,1.747,0.951c0.852,0.292,1.646,0.042,2.274-0.631c0.667-0.714,0.662-1.596-0.063-2.253
		c-0.321-0.291-0.727-0.49-1.1-0.72c-0.707-0.437-1.453-0.819-2.121-1.308c-1.254-0.919-1.697-2.196-1.42-3.715
		c0.276-1.512,1.295-2.4,2.658-2.876c1.434-0.502,2.839-0.186,4.179,0.44c0.107,0.05,0.202,0.245,0.205,0.375
		C572.989,396.116,572.979,396.884,572.979,397.579z"/>
	<path id="XMLID_26_" style="fill:#FFFFFF;" d="M560.249,397.568c-0.768-0.326-1.492-0.686-2.252-0.937
		c-0.551-0.182-1.103,0.005-1.569,0.356c-0.696,0.524-0.815,1.358-0.177,1.942c0.482,0.441,1.096,0.744,1.67,1.077
		c0.421,0.245,0.897,0.401,1.305,0.664c2.685,1.726,2.782,5.04,0.222,6.956c-1.882,1.408-4.072,1.056-5.803,0.06
		c-0.101-0.058-0.193-0.228-0.196-0.348c-0.017-0.831-0.009-1.663-0.009-2.625c0.238,0.198,0.389,0.33,0.547,0.453
		c0.722,0.558,1.48,1.022,2.447,0.965c0.703-0.042,1.246-0.373,1.652-0.925c0.465-0.633,0.439-1.368-0.136-1.91
		c-0.372-0.351-0.85-0.591-1.286-0.871c-0.753-0.483-1.566-0.89-2.255-1.45c-1.312-1.066-1.548-2.535-1.051-4.046
		c0.509-1.547,1.749-2.364,3.338-2.583c1.125-0.155,2.214,0.082,3.236,0.573c0.139,0.067,0.299,0.266,0.304,0.41
		C560.265,396.094,560.249,396.861,560.249,397.568z"/>
	<path id="XMLID_25_" style="fill:#FFFFFF;" d="M589.953,394.819c1.03,0,1.961-0.016,2.891,0.016
		c0.16,0.006,0.363,0.185,0.461,0.339c0.737,1.157,1.453,2.327,2.177,3.493c0.093,0.15,0.197,0.292,0.331,0.491
		c0.692-1.232,1.384-2.395,2.001-3.597c0.288-0.56,0.607-0.825,1.269-0.758c0.727,0.073,1.468,0.017,2.309,0.017
		c-0.123,0.22-0.208,0.382-0.302,0.538c-1.222,2.047-2.453,4.09-3.659,6.147c-0.156,0.266-0.252,0.606-0.256,0.913
		c-0.024,1.732-0.012,3.465-0.012,5.198c0,0.191,0,0.383,0,0.603c-0.985,0-1.907,0-2.896,0c0-0.216,0-0.406,0-0.597
		c0-1.749,0.01-3.498-0.011-5.247c-0.003-0.276-0.091-0.584-0.234-0.821c-1.243-2.073-2.507-4.134-3.764-6.198
		C590.169,395.204,590.086,395.05,589.953,394.819z"/>
	<path id="XMLID_24_" style="fill:#FFFFFF;" d="M544.592,394.841c0.902,0,1.763,0,2.657,0c0,4.458,0,8.894,0,13.369
		c-0.871,0-1.744,0-2.657,0C544.592,403.775,544.592,399.327,544.592,394.841z"/>
</g>
<g id="XMLID_1_" style="opacity:0.1;">
	<path id="XMLID_108_" d="M379.887,128.627c1.688-1.67,3.38-3.336,5.064-5.01c4.948-4.92,9.893-9.844,14.839-14.766
		c0.108-0.107,0.22-0.21,0.229-0.194c6.726,6.638,13.451,13.275,20.144,19.88c-1.597,1.623-3.124,3.193-4.671,4.741
		c-2.22,2.221-4.462,4.422-6.679,6.647c-0.271,0.272-0.477,0.305-0.829,0.161c-9.189-3.766-18.383-7.52-27.577-11.275
		c-0.172-0.07-0.349-0.13-0.524-0.194L379.887,128.627z"/>
	<path id="XMLID_107_" d="M380.104,168.576c2.159-2.205,4.275-4.384,6.413-6.543c1.624-1.64,3.28-3.249,4.91-4.883
		c0.224-0.225,0.408-0.272,0.709-0.148c9.249,3.795,18.503,7.581,27.755,11.369c0.062,0.025,0.12,0.061,0.094,0.048
		c-6.641,6.721-13.3,13.458-19.992,20.23C393.31,181.904,386.683,175.217,380.104,168.576z"/>
	<path id="XMLID_106_" d="M379.883,128.617c0.002,13.007,0.004,26.013,0.005,39.02c0,0.185,0,0.369,0,0.725
		c-6.668-6.638-13.238-13.178-19.831-19.742c0.109-0.123,0.201-0.237,0.303-0.339c6.494-6.52,12.989-13.04,19.484-19.56
		c0.022-0.023,0.031-0.059,0.045-0.091C379.887,128.627,379.883,128.617,379.883,128.617z"/>
	<path id="XMLID_105_" d="M420.257,168.235c0-13.087,0-26.186,0-39.441c6.678,6.618,13.265,13.144,19.801,19.62
		C433.452,155.026,426.863,161.622,420.257,168.235z"/>
</g>
<g id="XMLID_373_" style="opacity:0.1;">
	<path id="XMLID_370_" d="M288.057,228.058c-0.242-0.651-0.528-1.058-0.794-2.058c-0.029,0-0.058,0-0.088,0
		c-0.194,0-0.415,0.249-0.616,0.342c-1.588,0.735-3.207,1.454-4.887,1.959c-2.828,0.85-5.726,1.255-8.665,1.266
		c-1.246,0.005-2.501-0.031-3.746-0.203c-2.173-0.3-4.291-0.928-6.363-1.654c-1.335-0.467-2.58-0.71-3.924-1.71
		c-0.029,0-0.058,0-0.088,0c-0.263,1-0.555,1.319-0.785,1.93c-1.399,3.714-1.817,7.638-1.693,11.58
		c0.154,4.908,1.315,9.598,3.452,14.012c2.865,5.916,7.098,10.582,12.84,13.828c0.237,0.134,0.417,0.182,0.676,0.037
		c2.948-1.663,5.596-3.706,7.824-6.253c5.482-6.266,8.27-13.664,8.516-21.969C289.828,235.389,289.383,231.622,288.057,228.058z
		 M286.76,240.098c-0.402,5.705-2.278,10.922-5.285,15.745c-2.062,3.307-4.793,5.968-8.086,8.055
		c-0.238,0.151-0.402,0.165-0.654,0.007c-4.799-3.021-8.154-7.252-10.428-12.395c-1.355-3.066-2.354-6.237-2.785-9.571
		c-0.151-1.172-0.241-2.351-0.222-3.298c-0.012-2.766,0.349-5.23,1.241-7.609c0.124-0.33,0.256-0.359,0.563-0.255
		c4.452,1.509,9.027,2.186,13.724,1.958c3.483-0.169,6.88-0.825,10.179-1.96c0.366-0.126,0.468-0.02,0.581,0.289
		C286.665,233.986,286.978,237.007,286.76,240.098z"/>
	<path id="XMLID_367_" d="M286.065,262.813c-1.244-0.002-2.28,1.004-2.291,2.226c-0.012,1.238,1.038,2.283,2.287,2.276
		c1.248-0.007,2.255-1.011,2.257-2.25C288.32,263.826,287.308,262.815,286.065,262.813z M286.056,266.934
		c-1.119-0.003-1.924-0.8-1.912-1.891c0.011-1.08,0.803-1.848,1.906-1.85c1.108-0.003,1.898,0.761,1.908,1.844
		C287.967,266.144,287.172,266.938,286.056,266.934z"/>
	<path id="XMLID_364_" d="M246.302,262.813c-1.251,0.014-2.252,1.018-2.248,2.253c0.004,1.236,1.011,2.24,2.256,2.247
		c1.255,0.008,2.274-1.016,2.266-2.277C248.567,263.802,247.542,262.799,246.302,262.813z M246.309,266.934
		c-1.11-0.005-1.881-0.764-1.886-1.858c-0.005-1.119,0.77-1.886,1.902-1.883c1.112,0.002,1.883,0.761,1.885,1.856
		C248.213,266.17,247.437,266.939,246.309,266.934z"/>
	<path id="XMLID_363_" d="M222.81,240.801c1.306-1.455,2.794-2.405,4.62-2.95c-0.428,1.006-0.195,1.86,0.404,2.648
		c0.168,0.221,0.11,0.303-0.153,0.303C226.097,240.801,224.513,240.801,222.81,240.801z"/>
	<path id="XMLID_362_" d="M232.859,237.853c1.845,0.556,3.326,1.505,4.545,2.873c-0.081,0.128-0.193,0.073-0.284,0.073
		c-1.458,0.004-2.916,0.005-4.374,0c-0.124,0-0.286,0.065-0.365-0.06c-0.091-0.145,0.074-0.23,0.144-0.33
		C233.06,239.647,233.241,238.833,232.859,237.853z"/>
	<path id="XMLID_361_" d="M237.443,253.175c-0.398-0.752-0.785-1.484-1.174-2.215c-0.894-1.685-1.79-3.368-2.683-5.054
		c-0.266-0.502-0.217-0.604,0.343-0.658c1.755-0.171,3.511-0.328,5.266-0.501c0.228-0.022,0.344,0.028,0.39,0.267
		c0.573,2.985-0.079,5.664-1.991,8.032C237.56,253.087,237.511,253.117,237.443,253.175z"/>
	<g id="XMLID_322_">
		<path id="XMLID_324_" d="M250.493,238.446c0.001-0.369-0.1-0.452-0.459-0.451c-3.459,0.014-6.919,0.003-10.378,0.017
			c-0.385,0.002-0.512-0.077-0.51-0.492c0.019-3.43,0.006-6.86,0.018-10.291c0.001-0.338-0.078-0.443-0.432-0.441
			c-2.876,0.015-5.751,0.008-8.627,0.008c-2.846,0-5.693,0.007-8.539-0.008c-0.385-0.002-0.514,0.077-0.512,0.495
			c0.019,3.416,0.005,6.831,0.019,10.247c0.002,0.374-0.074,0.486-0.472,0.484c-3.459-0.018-6.919-0.005-10.378-0.018
			c-0.362-0.001-0.493,0.054-0.491,0.465c0.016,5.664,0.016,11.327,0,16.991c-0.001,0.423,0.137,0.491,0.515,0.49
			c3.43-0.013,6.861,0.003,10.291-0.02c0.462-0.003,0.538,0.136,0.536,0.557c-0.017,3.386-0.003,6.773-0.019,10.159
			c-0.002,0.396,0.094,0.511,0.502,0.51c5.707-0.014,11.415-0.014,17.122,0c0.388,0.001,0.487-0.099,0.485-0.486
			c-0.016-3.386-0.01-6.773-0.008-10.159c0-0.653-0.072-0.567,0.547-0.567c3.445-0.003,6.89-0.008,10.335,0.007
			c0.37,0.002,0.454-0.105,0.453-0.462C250.481,249.802,250.48,244.124,250.493,238.446z M220.275,241.759
			c2.209-3.793,5.527-5.819,9.9-5.807c4.373,0.013,7.678,2.404,9.867,6.208c0.279,0.485,0.266,0.839-0.285,0.839
			c-2.378,0-4.755,0-7.133,0c-0.131,0-0.263-0.344-0.394-0.35c-0.616-0.025-1.176-0.373-1.451-0.97
			c-0.266-0.579-0.126-1.224,0.261-1.723c0.214-0.276,0.426-0.593,0.459-0.967c0.061-0.674-0.254-1.283-0.825-1.516
			c-0.566-0.231-1.224-0.081-1.586,0.376c-0.411,0.519-0.441,1.202-0.058,1.742c0.253,0.356,0.547,0.684,0.596,1.145
			c0.086,0.804-0.405,1.409-1.259,1.544c-0.129,0.02-0.262,0.025-0.393,0.025c-2.567,0.002-5.134,0.002-7.702,0.001
			c-0.07,0-0.14-0.012-0.216-0.019C220.059,242.071,220.183,241.918,220.275,241.759z M222.927,255.475
			c-3.479-2.832-4.879-7.743-3.416-11.991c0.1-0.292,0.205-0.393,0.55-0.357c2.291,0.239,4.586,0.447,6.881,0.655
			c1.022,0.092,1.62,0.674,1.609,1.62c-0.023,0.301-0.086,0.611-0.242,0.901c-1.634,3.026-3.268,6.051-4.89,9.083
			C223.265,255.673,223.168,255.671,222.927,255.475z M235.974,256.461c-1.803,1.053-3.739,1.6-5.943,1.603
			c-1.96-0.003-3.887-0.536-5.676-1.583c-0.267-0.156-0.373-0.258-0.153-0.578c1.725-2.512,3.425-5.042,5.135-7.564
			c0.517-0.762,1.093-0.76,1.614,0.007c1.711,2.521,3.416,5.048,5.135,7.564C236.266,256.173,236.265,256.291,235.974,256.461z
			 M237.335,255.494c-0.238,0.204-0.321,0.155-0.459-0.101c-1.617-3.018-3.251-6.028-4.87-9.045c-0.703-1.309-0.052-2.45,1.41-2.575
			c2.281-0.194,4.561-0.413,6.838-0.652c0.335-0.035,0.425,0.078,0.511,0.348c0.169,0.528,0.318,1.061,0.413,1.607
			c0.112,0.647,0.164,1.302,0.177,2.074C241.262,250.449,239.935,253.271,237.335,255.494z"/>
		<path id="XMLID_323_" d="M226.453,245.251c-1.784-0.162-3.568-0.33-5.352-0.504c-0.25-0.024-0.357,0.039-0.408,0.304
			c-0.363,1.895-0.222,3.738,0.512,5.529c0.388,0.948,0.909,1.81,1.581,2.57c0.049-0.02,0.067-0.022,0.072-0.031
			c1.306-2.453,2.611-4.907,3.914-7.362C226.952,245.419,226.799,245.283,226.453,245.251z"/>
	</g>
	<path id="XMLID_321_" d="M230.242,256.533c-1.339-0.018-2.517-0.239-3.662-0.666c-0.342-0.127-0.329-0.237-0.147-0.508
		c1.144-1.705,2.27-3.422,3.404-5.133c0.271-0.409,0.336-0.411,0.599-0.013c1.142,1.723,2.275,3.453,3.429,5.169
		c0.19,0.282,0.13,0.377-0.156,0.481c-0.576,0.207-1.16,0.384-1.761,0.501C231.346,256.481,230.735,256.509,230.242,256.533z"/>
	<path id="XMLID_110_" d="M284.493,233.209c-0.18-0.574-0.179-0.58-0.749-0.425c-2.978,0.812-6.012,1.29-9.091,1.437
		c-3.946,0.188-7.824-0.317-11.649-1.276c-0.39-0.098-0.864-0.401-1.157-0.218c-0.313,0.196-0.313,0.749-0.414,1.156
		c-0.684,2.744-0.662,5.514-0.289,8.296c0.699,5.21,2.556,9.965,5.627,14.233c1.656,2.302,3.595,4.326,5.962,5.918
		c0.244,0.164,0.411,0.165,0.652,0c0.954-0.652,1.868-1.353,2.69-2.164c6-5.918,8.829-13.188,9.173-20.82
		C285.216,236.803,285.048,234.98,284.493,233.209z M272.019,259.325c0.03,0.136,0.069,0.318-0.101,0.383
		c-0.182,0.069-0.243-0.114-0.313-0.232c-0.556-0.934-0.357-1.883,0.603-2.524c-0.067,0.59,0.182,1.112-0.175,1.612
		C271.878,258.779,271.962,259.066,272.019,259.325z M273.85,256.853c-0.026,1.018-0.066,2.035-0.079,3.053
		c-0.005,0.391-0.169,0.553-0.552,0.55c-0.392-0.002-0.496-0.128-0.495-0.464c0.002-0.698,0.001-0.993,0.001-1.993
		c-0.034,0-0.069,0-0.103,0c0-1,0.006-1.496-0.003-2.194c-0.003-0.212,0.028-0.33,0.263-0.253
		C273.638,255.8,273.87,256.055,273.85,256.853z M275.632,256.104c-0.091,0.631-0.497,0.992-1.035,1.252
		c-0.223,0.108-0.366,0.11-0.322-0.2c0.046-0.328-0.039-0.666,0.099-0.99c0.078-0.183-0.079-0.296-0.199-0.399
		c-0.39-0.335-0.826-0.596-1.31-0.771c-0.383-0.138-0.772-0.258-1.152-0.404c-0.949-0.364-1.382-0.919-1.354-1.713
		c0.028-0.799,0.531-1.339,1.553-1.635c0.034,0.358,0.068,0.691,0.096,1.024c0.008,0.101,0.042,0.236-0.007,0.299
		c-0.384,0.486,0.027,0.592,0.342,0.73c0.88,0.383,1.772,0.739,2.571,1.285C275.458,254.952,275.728,255.436,275.632,256.104z
		 M273.95,253.392c-0.148-0.01-0.163-0.009-0.177-0.012c-1.017-0.275-1.325-0.945-1.279-1.97c0.039-0.867-0.058-0.873,0.787-0.801
		c0.16,0.013,0.318,0.041,0.478,0.054c0.145,0.012,0.194,0.085,0.193,0.228C273.948,251.717,273.95,252.545,273.95,253.392z
		 M276.523,251.171c-0.21,0.734-1.091,1.425-1.846,1.473c-0.195,0.012-0.222-0.057-0.216-0.214c0.007-0.204,0.002-0.408,0.002-0.613
		c0.035-0.362-0.053-0.727,0.277-1.044c0.216-0.208-0.032-0.529-0.453-0.591c-0.49-0.072-0.984-0.117-1.475-0.184
		c-0.649-0.089-1.307-0.136-1.93-0.355c-0.858-0.301-1.52-0.801-1.682-1.77c-0.133-0.795,0.088-1.293,0.825-1.645
		c1.109-0.529,0.837-0.554,1.32,0.44c0.153,0.316,0.399,0.628,0.077,1.062c-0.182,0.245,0.184,0.389,0.438,0.429
		c0.762,0.121,1.527,0.226,2.288,0.358c0.547,0.095,1.079,0.25,1.548,0.564C276.412,249.561,276.744,250.399,276.523,251.171z
		 M274.122,246c-0.027,0-0.053,0-0.08,0c0,0-0.006,1.003,0.003,1.424c0.004,0.2-0.079,0.339-0.261,0.296
		c-0.042-0.01-0.086,0.023-0.129,0.015c-0.43-0.073-0.917-0.025-1.273-0.227c-0.375-0.213-0.261-0.775-0.468-1.15
		c-0.183-0.33-0.345-0.667-0.528-0.998c-0.143-0.258-0.06-0.368,0.174-0.551c0.756-0.592,1.525-0.172,2.29-0.108
		c0.206,0.017,0.288-0.029,0.278,0.192C274.109,245.314,274.122,246,274.122,246z M277.465,245.488
		c-0.149,0.528-0.458,0.938-0.892,1.26c-0.427,0.317-0.907,0.52-1.422,0.648c-0.519,0.13-0.52,0.133-0.502-0.374
		c0.013-0.379,0.027-0.758,0.051-1.137c0.017-0.268,0.015-0.513,0.267-0.738c0.308-0.275,0.139-0.73-0.298-0.892
		c-0.523-0.194-1.078-0.247-1.629-0.301c-1.176-0.115-2.351-0.23-3.48-0.609c-0.815-0.273-1.554-0.668-2.104-1.352
		c-0.802-0.998-0.98-2.103-0.48-3.279c0.502-1.179,1.45-1.793,2.703-1.936c0.553-0.063,1.097,0.044,1.648,0.129
		c0.837,0.129,1.228,0.783,1.734,1.308c0.16,0.166-0.017,0.212-0.154,0.236c-0.449,0.08-0.901,0.073-1.352,0.028
		c-0.333-0.033-0.661-0.029-1.036,0.071c0.475,0.339,0.955,0.555,1.477,0.698c0.136,0.037,0.374,0.055,0.362,0.249
		c-0.011,0.192-0.246,0.179-0.389,0.21c-0.558,0.12-1.099,0.051-1.621-0.185c-0.317-0.143-0.655-0.335-0.944,0.042
		c-0.198,0.258-0.095,0.831,0.185,1.136c0.256,0.279,0.598,0.411,0.945,0.525c0.851,0.281,1.739,0.355,2.623,0.45
		c0.974,0.105,1.94,0.242,2.823,0.705C277.288,243.07,277.827,244.206,277.465,245.488z M277.368,238.59
		c-0.695,0.6-1.4,1.188-2.096,1.788c-0.164,0.142-0.367,0.284-0.446,0.471c-0.195,0.459-0.519,0.425-0.913,0.359
		c-0.588-0.099-1.182-0.174-1.777-0.216c-0.452-0.031-0.263-0.36-0.321-0.576c-0.072-0.268,0.083-0.32,0.306-0.334
		c0.113-0.007,0.227-0.053,0.333-0.1c0.415-0.182,0.48-0.433,0.189-0.854c0.342,0.027,0.608,0.148,0.878,0.249
		c0.268,0.101,0.535,0.204,0.821,0.313c-0.111-0.551-0.111-0.551-1.824-0.866c0.299-0.045,0.587-0.073,0.866-0.135
		c0.274-0.06,0.389-0.248,0.182-0.472c-0.515-0.556-0.829-1.313-1.64-1.579c-0.401-0.132-0.235-0.501-0.149-0.745
		c0.099-0.278,0.385-0.297,0.63-0.184c0.435,0.201,0.85,0.447,1.308,0.599c0.841,0.279,0.88,0.336,0.834,1.216
		c-0.002,0.044-0.009,0.087-0.008,0.131c0.009,0.263-0.192,0.625,0.098,0.759c0.256,0.118,0.483-0.203,0.7-0.361
		c0.352-0.257,0.665-0.569,1.048-0.785c0.407-0.229,0.902-0.108,1.185,0.289C277.816,237.895,277.75,238.261,277.368,238.59z"/>
	<path id="XMLID_103_" d="M286.657,265.153c0.404-0.089,0.595-0.345,0.574-0.751c-0.021-0.407-0.283-0.599-0.655-0.627
		c-0.391-0.03-0.785-0.014-1.178-0.022c-0.127-0.003-0.191,0.056-0.192,0.179c-0.003,0.742-0.005,1.485-0.006,2.227
		c0,0.102,0.051,0.162,0.156,0.171c0.139,0.012,0.173-0.073,0.173-0.19c0-0.189-0.008-0.379,0.004-0.568
		c0.008-0.131-0.075-0.326,0.136-0.359c0.193-0.031,0.406-0.072,0.541,0.16c0.154,0.264,0.333,0.512,0.491,0.773
		c0.106,0.175,0.235,0.241,0.461,0.137c-0.228-0.345-0.449-0.681-0.706-1.07C286.553,265.184,286.604,265.165,286.657,265.153z
		 M285.995,264.885c-0.31,0.068-0.519,0-0.481-0.457c0.024-0.289,0.103-0.39,0.383-0.359c0.173,0.019,0.349,0.003,0.523,0.012
		c0.243,0.012,0.427,0.098,0.429,0.383c0.002,0.303-0.191,0.4-0.45,0.419C286.284,264.892,286.167,264.885,285.995,264.885z"/>
	<path id="XMLID_52_" d="M247.494,264.359c-0.052-0.421-0.326-0.596-0.954-0.606c-0.276-0.004-0.553,0-0.829-0.001
		c-0.125-0.001-0.234,0.009-0.233,0.177c0.001,0.742,0,1.484,0,2.226c0,0.093,0.021,0.176,0.139,0.178
		c0.12,0.002,0.195-0.047,0.195-0.177c0-0.175-0.017-0.352,0.008-0.523c0.021-0.148-0.121-0.377,0.157-0.425
		c0.228-0.04,0.422-0.001,0.548,0.238c0.128,0.243,0.295,0.466,0.439,0.702c0.105,0.172,0.233,0.245,0.459,0.128
		c-0.228-0.344-0.449-0.679-0.695-1.05C247.354,265.02,247.548,264.792,247.494,264.359z M246.45,264.886
		c-0.634,0.001-0.756-0.155-0.634-0.646c0.007-0.028,0-0.075,0.016-0.084c0.299-0.168,0.62-0.064,0.932-0.063
		c0.201,0.001,0.33,0.126,0.357,0.32c0.033,0.238-0.093,0.397-0.322,0.446C246.645,264.892,246.481,264.884,246.45,264.886z"/>
	<path id="XMLID_47_" d="M271.904,237.503c-0.342,0.3-0.639,0.49-0.946,0.005c-0.063-0.1-0.236-0.13-0.349-0.23
		C271.045,237.264,271.475,237.268,271.904,237.503z"/>
</g>
<g id="XMLID_10_" style="opacity:0.1;">
	<path id="XMLID_8_" d="M419.089,308c-0.108,0-0.216,0-0.325,0c-1.846,1-4.254,2.226-6.249,3.712
		c0.665,0.701,1.593,0.55,2.358,0.768c0.662,0.189,0.99,0.34,0.987,1.132c-0.063,15.198,0.014,30.402-0.183,45.597
		c-0.083,6.418-0.82,12.815-3.309,18.855c-1.63,3.956-4.123,7.2-7.873,9.353c-2.689,1.544-4.48,1.666-7.523,0.717
		c9.396-3.086,12.513-10.728,13.94-19.53c0.893-5.505,1.059-11.07,1.053-16.639c-0.013-12.765,0.035-25.531,0.035-38.296
		c0-0.466,0-0.931,0-1.668c-2,1.23-4.505,2.346-6.615,3.456c0.084,0.205,0.077,0.339,0.127,0.352
		c3.095,0.867,3.086,0.866,3.086,4.035c0,12.333,0.061,24.666-0.04,36.998c-0.048,5.878-0.25,11.783-2.142,17.443
		c-1.366,4.086-3.51,7.649-7.361,9.904c-2.177,1.275-3.808,1.378-6.289,0.4c1.848-0.931,3.629-1.726,5.074-3.125
		c4.216-4.082,5.737-9.285,6.299-14.874c0.9-8.947,0.595-17.929,0.625-26.899c0.025-7.464-0.018-14.929,0.026-22.393
		c0.008-1.311-0.263-1.482-1.389-0.81c-1.681,1.003-3.442,1.88-5.346,2.898c-0.005,0.044-0.028,0.08-0.026,0.127
		c3.49,0.833,3.502,0.885,3.503,4.412c0.001,8.979,0.115,17.96-0.045,26.936c-0.104,5.821,0.064,11.674-0.906,17.454
		c-0.741,4.421-2.145,8.524-5.539,11.725c-1.898,1.79-3.969,1.737-6.427,1.003c4.98-1.763,6.553-5.887,7.727-10.215
		c1.093-4.03,1.232-8.221,1.276-12.351c0.135-12.656,0.047-25.314,0.044-37.971c0-0.19-0.021-0.391-0.048-0.781
		c-0.04-0.028-0.087-0.045-0.133-0.064c-5.545,3.006-10.97,5.948-16.393,8.888c-0.042,0.048-0.057,0.058-0.096,0.068
		c-0.007,0.066,0.009,0.13,0.009,0.203c0,12.606,0,25.214,0,37.826c0,0.156,0,0.312,0,0.468c0,0.023,0.037,0.048,0.05,0.085
		c0.113,3.5,0.435,6.972,1.69,10.278c0.569,1.498,1.458,2.77,3.1,3.27c0.405,0.123,0.629,0.356,0.791,0.725
		c0.608,1.383,1.521,2.451,3.033,2.898c0.508,0.15,0.65,0.673,0.971,1.006c2.023,2.101,4.254,3.954,6.779,5.44
		c0.382,0.225,0.848,0.113,1.263,0.227c0.2,0.022,0.399-0.046,0.61-0.046c0.541,0,1.082,0,1.623,0c0.58,0,1.404-0.063,2.104-0.28
		c5.372-1.663,9.142-5.006,11.603-9.975c3.309-6.68,4.265-13.912,4.367-21.181C419.229,342.372,419.08,325,419.089,308z"/>
</g>
<g id="XMLID_59_">
	<path id="XMLID_56_" style="fill:#FE572B;" d="M689.784,493.623c0.001-3.941,0.036-7.882-0.019-11.823
		c-0.018-1.279,0.444-1.692,1.711-1.653c5.539,0.172,11.081,0.081,16.607-0.303c7.446-0.517,14.037-2.838,18.528-9.305
		c0.95-1.368,1.595-2.881,2.232-4.4c0.324-0.773,0.599-1.158,1.384-0.34c2.967,3.089,5.966,6.148,8.996,9.176
		c0.938,0.937,0.305,1.448-0.328,2.088c-9.746,9.85-19.484,19.709-29.222,29.567c-2.93,2.966-5.882,5.912-8.769,8.92
		c-0.836,0.872-1.402,1.079-2.34,0.089c-2.553-2.694-5.19-5.31-7.831-7.919c-0.71-0.702-0.971-1.471-0.963-2.445
		C689.8,501.391,689.782,497.507,689.784,493.623z"/>
	<path id="XMLID_51_" style="fill:#182154;" d="M689.74,457.319c0.002-2.968,0.011-5.937-0.004-8.905
		c-0.004-0.812,0.041-1.499,1.136-1.462c4.494,0.149,9.009-0.348,13.475,0.667c3.98,0.904,6.486,3.458,7.102,7.528
		c1.004,6.635-2.398,11.294-9.028,12.276c-3.74,0.554-7.515,0.424-11.282,0.438c-1.186,0.004-1.42-0.629-1.411-1.636
		C689.756,463.256,689.738,460.287,689.74,457.319z"/>
	<path id="XMLID_50_" style="fill:#FE582C;" d="M671.103,475.995c-0.001,3.305,0.005,6.61-0.007,9.916
		c-0.002,0.431,0.172,1.014-0.369,1.2c-0.431,0.148-0.675-0.357-0.941-0.624c-3.174-3.188-6.308-6.416-9.512-9.573
		c-0.833-0.821-0.711-1.363,0.036-2.108c3.186-3.18,6.336-6.397,9.506-9.593c0.267-0.27,0.515-0.733,0.965-0.545
		c0.442,0.184,0.318,0.686,0.319,1.071C671.107,469.156,671.104,472.575,671.103,475.995z"/>
</g>
<g id="XMLID_61_" style="opacity:0.1;">
	<path id="XMLID_64_" d="M240.578,467.689c0.001-3.941,0.036-7.882-0.019-11.823c-0.018-1.279,0.445-1.692,1.711-1.653
		c5.539,0.172,11.081,0.081,16.607-0.303c7.446-0.517,14.037-2.838,18.528-9.305c0.95-1.368,1.595-2.881,2.232-4.4
		c0.324-0.773,0.599-1.158,1.384-0.34c2.967,3.089,5.966,6.148,8.996,9.176c0.938,0.937,0.305,1.448-0.328,2.088
		c-9.746,9.85-19.484,19.709-29.222,29.567c-2.93,2.966-5.882,5.912-8.769,8.92c-0.836,0.872-1.402,1.079-2.34,0.089
		c-2.553-2.694-5.19-5.31-7.831-7.919c-0.71-0.702-0.971-1.471-0.963-2.445C240.595,475.457,240.577,471.573,240.578,467.689z"/>
	<path id="XMLID_63_" d="M240.535,431.385c0.002-2.968,0.011-5.937-0.004-8.905c-0.004-0.812,0.041-1.499,1.136-1.462
		c4.494,0.149,9.009-0.348,13.475,0.667c3.98,0.904,6.486,3.458,7.102,7.528c1.004,6.635-2.398,11.294-9.028,12.276
		c-3.74,0.554-7.515,0.424-11.282,0.438c-1.186,0.004-1.42-0.628-1.411-1.636C240.551,437.322,240.533,434.353,240.535,431.385z"/>
	<path id="XMLID_62_" d="M221.898,450.06c-0.001,3.305,0.005,6.61-0.007,9.916c-0.001,0.431,0.172,1.014-0.369,1.2
		c-0.431,0.148-0.675-0.357-0.941-0.624c-3.174-3.188-6.308-6.416-9.512-9.573c-0.833-0.821-0.71-1.363,0.036-2.108
		c3.186-3.18,6.336-6.397,9.506-9.593c0.267-0.27,0.515-0.733,0.965-0.545c0.442,0.184,0.318,0.686,0.319,1.071
		C221.901,443.222,221.898,446.641,221.898,450.06z"/>
</g>
</svg>
