<?xml version="1.0" encoding="utf-8"?>
<!-- Generator: Adobe Illustrator 19.0.0, SVG Export Plug-In . SVG Version: 6.00 Build 0)  -->
<svg version="1.1" id="Layer_1" xmlns="http://www.w3.org/2000/svg" xmlns:xlink="http://www.w3.org/1999/xlink" x="0px" y="0px"
	 viewBox="0 0 39 16" style="enable-background:new 0 0 39 16;" xml:space="preserve">
<g id="XMLID_2_">
	<g id="XMLID_84_">
		<path id="XMLID_88_" style="fill:#FEFDFA;" d="M0.743,3.295c6,4,12,8,18,12c0.42,0.28,1.094,0.28,1.514,0c6-4,12-8,18-12
			c1.599-1.066,0.098-3.665-1.514-2.59c-2.864,1.909-5.727,3.818-8.591,5.727c-2.041,1.361-4.082,2.721-6.123,4.082
			c-0.669,0.446-1.613,0.87-2.172,1.448c-0.429,0.443-1.751,0.711-0.357,0.711c1.462,0-1.528-1.491-2.216-1.95
			c-2.009-1.339-4.018-2.678-6.027-4.018c-3-2-6-4-9-6C0.646-0.369-0.858,2.228,0.743,3.295L0.743,3.295z"/>
	</g>
</g>
</svg>
